<?xml version="1.0" standalone="no"?>
<!DOCTYPE svg PUBLIC "-//W3C//DTD SVG 1.1//EN" "http://www.w3.org/Graphics/SVG/1.1/DTD/svg11.dtd" >
<svg xmlns="http://www.w3.org/2000/svg">
<metadata></metadata>
<defs>
<font id="context_rounded_ssibold" horiz-adv-x="1251" >
<font-face units-per-em="2048" ascent="1638" descent="-410" />
<missing-glyph horiz-adv-x="627" />
<glyph horiz-adv-x="2048" />
<glyph horiz-adv-x="2048" />
<glyph unicode="&#xd;" horiz-adv-x="0" />
<glyph unicode=" "  horiz-adv-x="627" />
<glyph unicode="&#x09;" horiz-adv-x="627" />
<glyph unicode="&#xa0;" horiz-adv-x="627" />
<glyph unicode="!" horiz-adv-x="647" d="M156 156q0 47 23 86t62 61.5t83 22.5q43 0 82.5 -23t62.5 -61.5t23 -85.5q0 -70 -50 -120t-118 -50t-118 50t-50 120zM162 1116v242q0 78 41.5 118t120.5 40q78 0 119.5 -40t41.5 -118v-242q0 -30 -8 -96l-63 -483q-6 -44 -27 -61t-63 -17t-63 16.5t-28 61.5l-63 483 q-8 66 -8 96z" />
<glyph unicode="&#x22;" horiz-adv-x="1100" d="M217 1034v338q0 64 37 104t98 40t98 -40t37 -104v-338q0 -64 -36.5 -104.5t-98.5 -40.5t-98.5 40.5t-36.5 104.5zM612 1034v338q0 62 37.5 103t98.5 41q60 0 97.5 -40t37.5 -104v-338q0 -64 -37.5 -104.5t-97.5 -40.5q-61 0 -98.5 41.5t-37.5 103.5z" />
<glyph unicode="#" horiz-adv-x="1253" d="M106 498q0 43 24 71.5t75 28.5h106l33 248h-78q-50 0 -74 29.5t-24 70.5t24 69.5t74 28.5h107l43 320q14 106 114 106q40 0 67.5 -23.5t27.5 -60.5q0 -16 -7 -73l-36 -269h180l43 320q14 106 115 106q39 0 66.5 -23.5t27.5 -60.5q0 -11 -6 -73l-37 -269h78q50 0 74 -28.5 t24 -69.5t-24 -70.5t-74 -29.5h-107l-33 -248h78q52 0 75 -28t23 -72q0 -42 -24 -70.5t-74 -28.5h-106l-43 -319q-7 -50 -32.5 -78.5t-82.5 -28.5q-40 0 -67 24t-27 60q0 12 6 74l37 268h-180l-43 -319q-7 -50 -32.5 -78.5t-82.5 -28.5q-40 0 -67 24t-27 60q0 12 6 74 l37 268h-78q-49 0 -74 29.5t-25 69.5zM520 598h180l33 248h-180z" />
<glyph unicode="$" horiz-adv-x="1253" d="M51 354q0 41 15.5 70t43.5 44t68 15q77 0 101.5 -32.5t52.5 -107.5t76.5 -114.5t160.5 -44.5v432q-233 43 -360 148t-127 272q0 136 66.5 232.5t176.5 146.5t244 55v48q0 28 18.5 49.5t43.5 21.5q16 0 30.5 -10t22.5 -26.5t8 -34.5v-48q65 -2 149 -22.5t161 -59 t127.5 -95.5t50.5 -130q0 -59 -37.5 -94t-91.5 -35q-53 0 -121 80.5t-104 111.5t-134 34v-394q162 -34 269.5 -79.5t174 -136.5t66.5 -240q0 -202 -136.5 -311.5t-373.5 -125.5v-129q0 -27 -18 -48t-43 -21t-43.5 21.5t-18.5 47.5v129q-126 4 -222 39t-162 90.5t-100 122.5 t-34 129zM340 1083q0 -76 56.5 -123t172.5 -71v371q-101 -3 -165 -55t-64 -122zM692 184q107 9 179.5 58t72.5 145q0 94 -70.5 138.5t-181.5 68.5v-410z" />
<glyph unicode="%" horiz-adv-x="2048" d="M162 1075q0 87 19.5 158.5t61 124.5t108 82.5t155.5 29.5q90 0 157.5 -30t107 -81.5t59.5 -124t20 -159.5q0 -179 -83.5 -287t-260.5 -108t-260.5 108t-83.5 287zM383 1075q0 -233 123 -233t123 233q0 234 -123 234t-123 -234zM565 -10q0 29 23 69l737 1407q30 58 80 58 q33 0 56.5 -21.5t23.5 -48.5q0 -29 -23 -70l-737 -1407q-31 -57 -80 -57q-32 0 -56 21.5t-24 48.5zM1198 369q0 87 19.5 158.5t61 124.5t108 82.5t155.5 29.5q90 0 157.5 -30t107 -81.5t59.5 -124t20 -159.5t-19.5 -159t-60.5 -124.5t-107.5 -82.5t-156.5 -30 q-119 0 -196 50.5t-112.5 140.5t-35.5 205zM1419 369q0 -234 123 -234t123 234q0 104 -28.5 168.5t-94.5 64.5t-94.5 -64.5t-28.5 -168.5z" />
<glyph unicode="&#x26;" horiz-adv-x="1442" d="M90 385q0 157 86.5 269.5t235.5 185.5q-67 76 -104.5 144t-37.5 151q0 87 32.5 156t91 117.5t131 71.5t155.5 23q114 0 198 -33t133 -85t71 -114t22 -126q0 -79 -32.5 -151t-91.5 -129t-132 -93l205 -242l30.5 61t25 48.5t24.5 38.5q47 65 106 65q51 0 92 -35t41 -83 q0 -55 -48 -140t-103 -137l122 -149q29 -35 29 -82q0 -34 -18.5 -64t-53.5 -48.5t-81 -18.5q-32 0 -51 12t-50 45l-94 111q-184 -181 -475 -181q-153 0 -256.5 59.5t-153 153.5t-49.5 199zM389 410q0 -91 54 -146t147 -55q83 0 145.5 34.5t124.5 92.5l-268 319 q-95 -52 -149 -111.5t-54 -133.5zM541 1161q0 -71 33 -115t104 -104q61 39 89 59.5t53.5 61t25.5 94.5q0 57 -43.5 96t-110.5 39q-66 0 -108.5 -37.5t-42.5 -93.5z" />
<glyph unicode="'" horiz-adv-x="647" d="M188 1034v338q0 62 37.5 103t98.5 41t98 -40t37 -104v-338q0 -64 -36.5 -104.5t-98.5 -40.5q-61 0 -98.5 41.5t-37.5 103.5z" />
<glyph unicode="(" horiz-adv-x="682" d="M137 555q0 312 146 659q56 136 92 203.5t62 87t65 19.5q45 0 75.5 -27.5t30.5 -66.5q0 -34 -44 -165t-67 -205t-48 -214.5t-25 -290.5q0 -149 25.5 -290.5t68 -276t66.5 -205t24 -105.5q0 -39 -30.5 -66.5t-75.5 -27.5q-39 0 -65 19.5t-62 87t-92 203.5 q-146 350 -146 661z" />
<glyph unicode=")" horiz-adv-x="682" d="M74 -322q0 30 24 103t66.5 207.5t68 271.5t25.5 295q0 159 -25 295t-48 210t-67 207.5t-44 162.5q0 39 30.5 66.5t75.5 27.5q39 0 65 -19.5t62 -87t92 -203.5q146 -347 146 -659q0 -311 -146 -661q-56 -136 -92 -203.5t-62 -87t-65 -19.5q-45 0 -75.5 27.5t-30.5 66.5z " />
<glyph unicode="*" horiz-adv-x="950" d="M92 1217q0 43 28.5 67.5t55.5 24.5q23 0 53 -13l160 -57v184q0 93 86 93q41 0 63.5 -24.5t22.5 -68.5v-184l160 57q30 13 53 13q28 0 56 -24.5t28 -67.5q0 -59 -72 -82l-180 -54l123 -161q25 -34 25 -60q0 -45 -31.5 -65.5t-60.5 -20.5q-50 0 -70 33l-117 176l-117 -176 q-20 -33 -69 -33q-29 0 -60.5 20.5t-31.5 65.5q0 27 24 60l123 161l-180 54q-72 24 -72 82z" />
<glyph unicode="+" horiz-adv-x="1229" d="M35 586q0 55 39 89t104 34h314v317q0 63 33 104t89 41q57 0 90 -41t33 -104v-317h314q65 0 104 -34t39 -89q0 -57 -39 -91t-104 -34h-314v-316q0 -64 -33.5 -104.5t-89.5 -40.5q-55 0 -88.5 40.5t-33.5 104.5v316h-314q-62 0 -102.5 38t-40.5 87z" />
<glyph unicode="," horiz-adv-x="627" d="M145 156q0 70 49 120t119 50q96 0 144.5 -74t48.5 -189q0 -99 -26 -160t-79 -116q-30 -28 -87 -58t-99 -30q-32 0 -51 18t-19 43q0 30 37 48.5t76 37.5t70 58t34 110q-32 -18 -69 -18q-68 0 -108 47t-40 113z" />
<glyph unicode="-" horiz-adv-x="834" d="M82 571q0 74 45.5 108t120.5 34h338q76 0 121 -33.5t45 -108.5q0 -76 -45 -109.5t-121 -33.5h-338q-166 0 -166 143z" />
<glyph unicode="." horiz-adv-x="627" d="M145 156q0 70 49 120t119 50q44 0 83 -22.5t62 -61.5t23 -86q0 -70 -49 -120t-119 -50q-69 0 -118.5 49.5t-49.5 120.5z" />
<glyph unicode="/" horiz-adv-x="758" d="M16 70q0 22 17 69l489 1301q16 39 38.5 61.5t74.5 22.5q38 0 72 -29.5t34 -75.5q0 -23 -16 -67l-489 -1303q-13 -35 -37 -59.5t-76 -24.5q-38 0 -72.5 29.5t-34.5 75.5z" />
<glyph unicode="0" horiz-adv-x="1253" d="M80 741q0 238 67 402.5t190 245.5t290 81q166 0 289.5 -81t190.5 -245.5t67 -402.5q0 -201 -49.5 -374.5t-172 -283.5t-325.5 -110t-325.5 110t-172 283.5t-49.5 374.5zM379 721q0 -266 62.5 -383t185.5 -117q82 0 136 49t82.5 160t28.5 291q0 120 -13.5 212.5t-42.5 157 t-77 98.5t-114 34q-89 0 -144 -59.5t-79.5 -169.5t-24.5 -273z" />
<glyph unicode="1" horiz-adv-x="834" d="M-18 1051q0 54 32 78t115 40l76 17q76 17 115.5 56.5t73 103.5t62.5 94t87 30q55 0 87 -30.5t32 -110.5v-1173q0 -183 -156 -183t-156 183v786h-264q-54 0 -79 24t-25 85z" />
<glyph unicode="2" horiz-adv-x="1214" d="M63 154q0 73 43 150.5t131 160.5t212 162q102 65 181.5 116t120.5 87t60.5 79t19.5 105q0 65 -29.5 112t-78.5 72t-107 25q-67 0 -118 -21t-88 -70.5t-58 -127.5q-16 -61 -44 -89t-85 -28q-149 0 -149 139q0 93 42.5 174.5t117 141.5t175.5 94t212 34q156 0 275 -60 t183 -154.5t64 -192.5q0 -131 -38.5 -221.5t-110.5 -153t-193 -131.5q-192 -109 -286.5 -175.5t-113.5 -121.5h615q40 0 70.5 -13.5t47.5 -41.5t17 -74q0 -131 -152 -131h-768q-82 0 -125 46.5t-43 107.5z" />
<glyph unicode="3" horiz-adv-x="1214" d="M63 332q0 63 42 103t104 40q61 0 84.5 -27.5t59.5 -94t82 -99.5t140 -33q112 0 174 62t62 161q0 81 -42 129t-142 58q-72 7 -121 29t-49 83q0 76 42 103.5t136 32.5q75 4 115.5 46t40.5 115q0 59 -28 101t-73.5 62t-103.5 20q-83 0 -128.5 -31t-83.5 -92t-63 -87t-78 -26 q-58 0 -97.5 29t-39.5 94q0 89 46 158t121.5 114t161.5 66.5t167 21.5q167 0 276 -56t159 -146.5t50 -198.5q0 -195 -174 -289q112 -30 165.5 -115t53.5 -208q0 -120 -42.5 -211.5t-118.5 -152t-176 -90.5t-216 -30q-177 0 -291.5 61t-164.5 145t-50 153z" />
<glyph unicode="4" d="M27 473q0 72 39 123l630 817q43 57 133 57q154 0 154 -149v-754h102q53 0 84 -33t31 -85q0 -51 -31 -84t-84 -33h-102v-213q0 -70 -33.5 -108t-109.5 -38q-75 0 -109.5 38t-34.5 108v213h-514q-74 0 -114.5 42.5t-40.5 98.5zM297 567h399v535h-4z" />
<glyph unicode="5" horiz-adv-x="1214" d="M66 266q0 62 41 103t106 41q49 0 113.5 -72t100 -100.5t128.5 -28.5q113 0 187.5 80t74.5 184q0 83 -36 141.5t-99 86.5t-141 28q-57 0 -95.5 -13t-91 -42t-73.5 -38t-54 -9q-60 0 -100.5 34t-40.5 103q0 51 10 108l74 441q9 54 45 92.5t86 38.5h614q136 0 136 -131 q0 -66 -36 -97.5t-95 -31.5h-523l-55 -312l4 -4q109 97 285 97q132 0 242.5 -54t176.5 -162t66 -262q0 -161 -71.5 -277.5t-200 -176.5t-293.5 -60q-161 0 -271.5 48t-162 116.5t-51.5 128.5z" />
<glyph unicode="6" horiz-adv-x="1253" d="M80 641q0 224 42.5 384.5t121.5 258t191.5 142t260.5 44.5q114 0 209 -39.5t148 -101t53 -125.5q0 -58 -37.5 -96.5t-91.5 -38.5q-44 0 -70.5 20t-66 65t-77 69t-93.5 24q-148 0 -219.5 -118.5t-71.5 -280.5v-37q68 65 144 99t175 34q149 0 257 -61t163.5 -166.5 t55.5 -231.5t-39.5 -221.5t-111.5 -160t-169.5 -97.5t-210.5 -33q-155 0 -265.5 56t-175.5 151.5t-93.5 212.5t-28.5 248zM397 465q0 -79 29 -136.5t84 -88.5t127 -31q111 0 174 68t63 188q0 128 -64.5 191t-172.5 63q-66 0 -121.5 -30t-87 -87.5t-31.5 -136.5z" />
<glyph unicode="7" horiz-adv-x="1176" d="M20 1313q0 131 136 131h831q141 0 141 -150q0 -50 -45.5 -106.5t-146.5 -188.5t-191 -336.5t-163 -525.5q-20 -94 -51 -129t-101 -35q-84 0 -116.5 42.5t-32.5 115.5q0 78 45 214t123.5 298.5t173 306.5t190.5 234h-661q-60 0 -96 32.5t-36 96.5z" />
<glyph unicode="8" horiz-adv-x="1253" d="M80 436q0 121 60 212t171 126q-87 42 -138.5 125t-51.5 178q0 112 60.5 202t175.5 140.5t270 50.5q117 0 211 -29t159 -81t100.5 -125t35.5 -158q0 -98 -51.5 -179.5t-139.5 -123.5q76 -24 128 -73t78 -117t26 -148q0 -126 -48 -216.5t-126.5 -144t-175 -78t-197.5 -24.5 t-196.5 24t-175.5 79t-127.5 146t-47.5 214zM379 434q0 -105 68.5 -165t179.5 -60q110 0 178.5 59.5t68.5 165.5q0 86 -60.5 160t-186.5 74q-125 0 -186.5 -74t-61.5 -160zM408 1057q0 -93 61 -142t158 -49t158 49t61 142q0 89 -62 139.5t-157 50.5t-157 -50.5t-62 -139.5z " />
<glyph unicode="9" horiz-adv-x="1253" d="M80 958q0 165 68.5 280.5t189 173.5t272.5 58q204 0 330.5 -94t180 -244t53.5 -329q0 -224 -42 -384.5t-122.5 -258.5t-193.5 -142.5t-259 -44.5q-173 0 -291.5 84t-118.5 183q0 55 37.5 95t91.5 40q46 0 76.5 -22.5t68.5 -66.5t72.5 -66.5t90.5 -22.5q100 0 165.5 57.5 t95 147.5t29.5 194v37q-70 -66 -145 -99.5t-174 -33.5q-148 0 -256 60.5t-163.5 166.5t-55.5 231zM379 979q0 -85 30 -141.5t84 -84.5t123 -28q104 0 172 67t68 187q0 119 -64.5 187.5t-175.5 68.5t-174 -68.5t-63 -187.5z" />
<glyph unicode=":" horiz-adv-x="627" d="M145 156q0 70 49 120t119 50q44 0 83 -22.5t62 -61.5t23 -86q0 -70 -49 -120t-119 -50q-69 0 -118.5 49.5t-49.5 120.5zM145 911q0 71 49.5 120.5t118.5 49.5q70 0 119 -50t49 -120q0 -69 -48.5 -118.5t-119.5 -49.5q-70 0 -119 49t-49 119z" />
<glyph unicode=";" horiz-adv-x="627" d="M145 156q0 70 49 120t119 50q96 0 144.5 -74t48.5 -189q0 -99 -26 -160t-79 -116q-30 -28 -87 -58t-99 -30q-32 0 -51 18t-19 43q0 30 37 48.5t76 37.5t70 58t34 110q-32 -18 -69 -18q-68 0 -108 47t-40 113zM145 911q0 71 49.5 120.5t118.5 49.5q70 0 119 -50t49 -120 q0 -69 -48.5 -118.5t-119.5 -49.5q-70 0 -119 49t-49 119z" />
<glyph unicode="&#x3c;" horiz-adv-x="1229" d="M47 586q0 39 21.5 69.5t54.5 46.5l833 388q61 28 113 28q50 0 81.5 -30.5t31.5 -79.5q0 -42 -20 -74.5t-77 -56.5l-659 -291l659 -293q57 -24 77 -55.5t20 -73.5q0 -50 -31.5 -81.5t-81.5 -31.5q-53 0 -113 29l-833 387q-32 15 -54 48t-22 71z" />
<glyph unicode="=" horiz-adv-x="1229" d="M35 342q0 56 39 89.5t104 33.5h873q65 0 104 -33.5t39 -89.5q0 -57 -39 -91t-104 -34h-873q-62 0 -102.5 37.5t-40.5 87.5zM35 829q0 56 39.5 90.5t103.5 34.5h873q64 0 103.5 -34.5t39.5 -90.5q0 -55 -39.5 -89.5t-103.5 -34.5h-873q-62 0 -102.5 38t-40.5 86z" />
<glyph unicode="&#x3e;" horiz-adv-x="1229" d="M47 164q0 42 19 73.5t77 55.5l660 293l-660 291q-58 24 -77 56.5t-19 74.5q0 49 31.5 79.5t81.5 30.5q52 0 112 -28l834 -388q21 -10 39 -28t27.5 -41.5t9.5 -46.5q0 -38 -21 -71t-55 -48l-834 -387q-59 -29 -112 -29q-50 0 -81.5 31.5t-31.5 81.5z" />
<glyph unicode="?" horiz-adv-x="1176" d="M88 1133q0 99 67 187t178 142t234 54q104 0 197 -24.5t165.5 -74.5t115 -129.5t42.5 -185.5q0 -93 -43.5 -164.5t-91.5 -112t-132.5 -103.5t-102.5 -89q-13 -19 -33.5 -72.5t-47 -77.5t-87.5 -24q-62 0 -96.5 42.5t-34.5 96.5q0 81 45 139.5t136 129.5t134 119.5 t43 115.5q0 85 -52 131.5t-144 46.5q-87 0 -129.5 -35.5t-75 -104.5t-60.5 -100.5t-94 -31.5q-56 0 -94.5 33.5t-38.5 91.5zM389 156q0 70 49 120t119 50q43 0 82.5 -23t62.5 -61.5t23 -85.5q0 -70 -50 -120t-118 -50q-69 0 -118.5 49.5t-49.5 120.5z" />
<glyph unicode="@" horiz-adv-x="1638" d="M61 743q0 218 106.5 397.5t290 281.5t398.5 102q148 0 279 -44.5t230.5 -128.5t155.5 -202.5t56 -265.5q0 -163 -59 -280t-144 -185t-172 -99.5t-143 -31.5q-120 0 -123 106h-4q-91 -106 -213 -106q-83 0 -153 48t-109 131.5t-39 184.5q0 137 54 252t144 179.5t191 64.5 q90 0 148.5 -31t105.5 -98l8 37q16 73 98 73q26 0 46 -10t32 -29.5t12 -48.5q0 -20 -8 -59l-63 -360q-12 -57 -12 -74q0 -43 38 -43q30 0 60.5 18.5t58.5 59.5t45 102.5t17 138.5q0 125 -40 221t-111.5 161t-172 98.5t-219.5 33.5q-155 0 -285 -79.5t-206 -217t-76 -297.5 q0 -179 76 -313.5t210.5 -206t298.5 -71.5q101 0 176.5 18.5t114.5 39t84 49t66 28.5q32 0 54.5 -23.5t22.5 -56.5q0 -54 -85 -111t-207.5 -94t-225.5 -37q-165 0 -311 56.5t-258.5 162.5t-175 249.5t-62.5 309.5zM639 694q0 -55 21 -97.5t57.5 -64.5t85.5 -22q86 0 142 67 t56 168q0 80 -41.5 128.5t-115.5 48.5q-89 0 -147 -67t-58 -161z" />
<glyph unicode="A" horiz-adv-x="1366" d="M18 123q0 38 33 129l434 1161q22 56 61.5 79.5t102.5 23.5h80q65 0 110 -25t70 -98l406 -1141q33 -91 33 -129q0 -62 -46.5 -106t-111.5 -44q-117 0 -152 93l-86 249h-540l-88 -249q-16 -48 -52.5 -70.5t-97.5 -22.5q-69 0 -112.5 41t-43.5 109zM485 551h394l-191 598h-4 z" />
<glyph unicode="B" horiz-adv-x="1479" d="M156 199v1091q0 109 51 154t145 45h447q144 0 263 -30.5t197 -115.5t78 -239q0 -97 -53 -178.5t-154 -122.5v-4q122 -31 190.5 -121t68.5 -238q0 -147 -73 -247t-195 -146.5t-275 -46.5h-494q-94 0 -145 45t-51 154zM492 260h282q121 0 200 41.5t79 157.5 q0 122 -85.5 162.5t-234.5 40.5h-241v-402zM492 877h276q233 0 233 182q0 99 -68.5 140.5t-174.5 41.5h-266v-364z" />
<glyph unicode="C" horiz-adv-x="1479" d="M109 745q0 161 45.5 300.5t138.5 248.5t227 169.5t309 60.5q138 0 250 -38t188.5 -98t117 -127.5t40.5 -125.5q0 -71 -38 -111.5t-113 -40.5q-63 0 -93.5 28t-80.5 98t-109 106t-162 36q-107 0 -194.5 -60t-139 -174t-51.5 -272q0 -104 22 -195t70.5 -162.5t124.5 -110.5 t181 -39q89 0 144.5 38t109.5 113t84 105t82 30q65 0 114 -35.5t49 -95.5q0 -79 -44 -155.5t-124.5 -138.5t-187.5 -98t-227 -36q-230 0 -395 88t-251.5 263.5t-86.5 428.5z" />
<glyph unicode="D" horiz-adv-x="1554" d="M156 199v1091q0 109 51 154t145 45h410q146 0 271 -36t222.5 -121.5t153 -231t55.5 -355.5q0 -178 -47 -316t-138.5 -233.5t-223.5 -145.5t-299 -50h-404q-94 0 -145 45t-51 154zM492 272h282q126 0 205.5 66.5t114 172.5t34.5 234q0 148 -38 254t-118.5 162t-199.5 56 h-280v-945z" />
<glyph unicode="E" horiz-adv-x="1403" d="M164 199v1091q0 108 50.5 153.5t145.5 45.5h789q82 0 126 -30t44 -105q0 -77 -44 -107t-126 -30h-649v-324h569q76 0 117 -28t41 -101q0 -74 -41.5 -102.5t-116.5 -28.5h-569v-361h665q81 0 125.5 -30.5t44.5 -104.5q0 -75 -44 -106t-126 -31h-805q-63 0 -106 19 t-66.5 64t-23.5 116z" />
<glyph unicode="F" horiz-adv-x="1290" d="M164 143v1147q0 108 50.5 153.5t145.5 45.5h740q82 0 126 -30t44 -105q0 -77 -44 -107t-126 -30h-600v-349h508q74 0 115.5 -27.5t41.5 -101.5q0 -75 -41 -103t-116 -28h-508v-465q0 -77 -45.5 -123.5t-122.5 -46.5q-76 0 -122 47t-46 123z" />
<glyph unicode="G" horiz-adv-x="1669" d="M109 745q0 183 54.5 329.5t157.5 247t243 151.5t313 51q132 0 240.5 -35t182 -91t111 -117t37.5 -114q0 -80 -46.5 -114.5t-111.5 -34.5q-53 0 -73 19t-72 85t-113 97.5t-174 31.5q-119 0 -212.5 -55.5t-147.5 -173.5t-54 -301q0 -147 48 -259.5t141.5 -174.5t228.5 -62 q87 0 165 38.5t128 108.5t57 158h-219q-62 0 -106.5 30t-44.5 99q0 62 34 97t97 35h413q138 0 138 -144v-561q0 -47 -32 -80t-83 -33q-46 0 -74 20t-42.5 59.5t-26.5 113.5q-159 -201 -439 -201q-249 0 -409.5 104.5t-234.5 281t-74 394.5z" />
<glyph unicode="H" horiz-adv-x="1593" d="M156 143v1205q0 75 46.5 121.5t121.5 46.5q51 0 88.5 -21t58.5 -58.5t21 -88.5v-424h610v424q0 75 46.5 121.5t121.5 46.5q51 0 88.5 -21t58.5 -58.5t21 -88.5v-1205q0 -77 -45.5 -123.5t-122.5 -46.5q-76 0 -122 47t-46 123v496h-610v-496q0 -77 -45.5 -123.5 t-122.5 -46.5q-76 0 -122 47t-46 123z" />
<glyph unicode="I" horiz-adv-x="647" d="M156 143v1205q0 75 46.5 121.5t121.5 46.5q51 0 88.5 -21t58.5 -58.5t21 -88.5v-1205q0 -77 -45.5 -123.5t-122.5 -46.5q-76 0 -122 47t-46 123z" />
<glyph unicode="J" horiz-adv-x="1176" d="M37 383q0 95 42 151t118 56q151 0 151 -197q0 -168 164 -168q172 0 172 244v879q0 74 46 121t122 47q51 0 88.5 -21t58.5 -58.5t21 -88.5v-883q0 -235 -129 -367.5t-375 -132.5q-185 0 -292 68t-147 163t-40 187z" />
<glyph unicode="K" horiz-adv-x="1403" d="M156 143v1205q0 75 46.5 121.5t121.5 46.5q51 0 88.5 -21t58.5 -58.5t21 -88.5v-494l528 588q36 38 64 56t69 18q65 0 112.5 -37t47.5 -99t-56 -116l-344 -367l408 -627q27 -39 45 -72t18 -61q0 -86 -50.5 -125t-121.5 -39q-52 0 -83.5 18.5t-65.5 69.5l-387 605 l-184 -187v-336q0 -77 -45.5 -123.5t-122.5 -46.5q-76 0 -122 47t-46 123z" />
<glyph unicode="L" d="M156 199v1149q0 75 46.5 121.5t121.5 46.5q51 0 88.5 -21t58.5 -58.5t21 -88.5v-1063h561q76 0 125 -37t49 -105q0 -69 -48.5 -106t-125.5 -37h-701q-94 0 -145 45t-51 154z" />
<glyph unicode="M" horiz-adv-x="1819" d="M150 139v1211q0 166 182 166h98q79 0 121 -35t67 -119l293 -956h4l289 956q18 57 42 90.5t59.5 48.5t87.5 15h94q182 0 182 -166v-1211q0 -71 -36.5 -118.5t-112.5 -47.5q-77 0 -113.5 47.5t-36.5 118.5v922h-4l-313 -989q-33 -99 -144 -99q-112 0 -143 99l-313 989h-4 v-922q0 -71 -36.5 -118.5t-113.5 -47.5t-113 47.5t-36 118.5z" />
<glyph unicode="N" horiz-adv-x="1593" d="M150 137v1180q0 70 22.5 114t68 64.5t119.5 20.5q53 0 97.5 -22t70.5 -67l588 -958h4v885q0 80 42.5 121t119.5 41q78 0 120 -40.5t42 -121.5v-1170q0 -211 -199 -211q-76 0 -112.5 18.5t-71.5 71.5l-584 932h-4v-858q0 -82 -43 -123t-119 -41q-75 0 -118 41t-43 123z " />
<glyph unicode="O" horiz-adv-x="1671" d="M90 764q0 219 86.5 391.5t256 270.5t403.5 98q233 0 402.5 -97.5t256 -270.5t86.5 -392q0 -159 -46.5 -303.5t-140 -256t-234.5 -175.5t-324 -64q-256 0 -423 103t-245 283.5t-78 412.5zM426 764q0 -238 95 -382t315 -144q146 0 237.5 69t131.5 186.5t40 270.5 q0 111 -25.5 198t-77 153t-127.5 101t-179 35q-133 0 -225.5 -61t-138.5 -171.5t-46 -254.5z" />
<glyph unicode="P" horiz-adv-x="1442" d="M156 143v1147q0 109 51 154t145 45h514q148 0 262.5 -50t181 -156t66.5 -265q0 -135 -61 -242.5t-176.5 -168t-274.5 -60.5h-372v-404q0 -77 -45.5 -123.5t-122.5 -46.5q-76 0 -122 47t-46 123zM492 807h313q67 0 121 26t84 74.5t30 110.5q0 211 -270 211h-278v-422z" />
<glyph unicode="Q" horiz-adv-x="1671" d="M90 764q0 219 86.5 391.5t256 270.5t403.5 98q233 0 402.5 -97.5t256 -270.5t86.5 -392q0 -171 -50.5 -319.5t-152.5 -256.5l129 -122q27 -24 27 -58q0 -43 -36 -85t-79 -42q-32 0 -48.5 9t-47.5 36l-129 121q-155 -82 -358 -82q-256 0 -423 103t-245 283.5t-78 412.5z M426 764q0 -238 95 -382t315 -144q76 0 135 18l-115 109q-27 24 -27 57q0 43 36 85t79 42q35 0 53.5 -10.5t42.5 -34.5l117 -107q45 67 66.5 159.5t21.5 207.5q0 111 -25.5 198t-77 153t-127.5 101t-179 35q-133 0 -225.5 -61t-138.5 -171.5t-46 -254.5z" />
<glyph unicode="R" horiz-adv-x="1518" d="M156 143v1147q0 109 51 154t145 45h559q188 0 300.5 -60t159 -153.5t46.5 -200.5q0 -82 -30.5 -157t-88.5 -128.5t-135 -72.5v-4q119 -17 161 -94t42 -207q0 -75 9 -124t22.5 -102t13.5 -80q0 -38 -22.5 -68t-59.5 -47.5t-76 -17.5q-118 0 -158 79.5t-40 160.5 q0 137 -19.5 215t-70 115t-142.5 37h-331v-437q0 -77 -45.5 -123.5t-122.5 -46.5q-76 0 -122 47t-46 123zM492 827h335q114 0 184 43.5t70 157.5q0 113 -61.5 157t-181.5 44h-346v-402z" />
<glyph unicode="S" horiz-adv-x="1403" d="M90 342q0 62 39.5 100.5t101.5 38.5q71 0 147 -92t130 -134t199 -42q83 0 144.5 28t93.5 73.5t32 95.5q0 120 -143 155l-379 97q-111 29 -183 73.5t-109.5 96.5t-53 112.5t-15.5 124.5q0 156 83.5 258.5t219 149.5t285.5 47q133 0 266 -46t219 -126t86 -174 q0 -62 -45 -99t-108 -37q-49 0 -90 39.5t-80 81.5t-101.5 71.5t-169.5 29.5q-114 0 -177.5 -48.5t-63.5 -128.5q0 -68 61 -101.5t168 -59.5l281 -64q211 -47 298 -161.5t87 -266.5q0 -104 -38 -189t-113.5 -147.5t-191.5 -97.5t-263 -35q-148 0 -267 34t-197.5 91.5 t-115.5 123t-37 128.5z" />
<glyph unicode="T" horiz-adv-x="1368" d="M25 1348q0 67 48.5 104t125.5 37h970q76 0 125 -37t49 -104q0 -68 -48.5 -106t-125.5 -38h-317v-1061q0 -77 -45.5 -123.5t-122.5 -46.5t-122.5 47.5t-45.5 122.5v1061h-317q-76 0 -125 38t-49 106z" />
<glyph unicode="U" horiz-adv-x="1593" d="M156 559v789q0 75 46.5 121.5t121.5 46.5q51 0 88.5 -21t58.5 -58.5t21 -88.5v-816q0 -100 35.5 -165.5t103.5 -97t166 -31.5q147 0 226 73t79 221v816q0 75 46.5 121.5t121.5 46.5q51 0 88.5 -21t58.5 -58.5t21 -88.5v-789q0 -299 -168.5 -446.5t-472.5 -147.5 t-472.5 148t-168.5 446z" />
<glyph unicode="V" horiz-adv-x="1327" d="M18 1366q0 78 49 114t121 36q67 0 107 -36t63 -112l304 -1014h4l315 1014q24 75 62 111.5t96 36.5q73 0 121.5 -35.5t48.5 -114.5q0 -45 -21 -100l-426 -1176q-17 -45 -44.5 -71.5t-65.5 -36t-95 -9.5q-58 0 -95.5 9.5t-65.5 36t-43 71.5l-414 1176q-21 58 -21 100z" />
<glyph unicode="W" horiz-adv-x="1896" d="M18 1364q0 49 23 83t61.5 51.5t77.5 17.5q65 0 104 -32.5t54 -105.5l199 -989h4l229 1002q14 66 51 95.5t125 29.5q96 0 135 -40t56 -120l223 -967h4l201 989q28 138 151 138q39 0 77.5 -17.5t61.5 -51.5t23 -83q0 -38 -16 -98l-289 -1131q-23 -90 -67.5 -126t-135.5 -36 q-90 0 -133.5 38.5t-67.5 129.5l-219 908h-4l-219 -908q-20 -88 -65 -128t-136 -40q-90 0 -134.5 36t-67.5 126l-289 1131q-17 64 -17 98z" />
<glyph unicode="X" horiz-adv-x="1212" d="M23 119q0 62 45 129l352 520l-322 485q-35 54 -35 105q0 42 22 79t61 58t85 21q89 0 140 -82l243 -424l260 424q28 44 57 63t81 19q69 0 115.5 -39t46.5 -113q0 -49 -31 -92l-342 -504l334 -508q33 -51 44 -71.5t11 -47.5q0 -80 -49.5 -124t-122.5 -44q-47 0 -80.5 16.5 t-60.5 61.5l-271 457l-291 -469q-39 -66 -131 -66q-72 0 -116.5 41.5t-44.5 104.5z" />
<glyph unicode="Y" horiz-adv-x="1253" d="M18 1362q0 78 54.5 116t115.5 38q58 0 91.5 -23t60.5 -76l293 -545l291 545q31 57 62 78t83 21q58 0 112 -38t54 -116q0 -46 -29 -90l-411 -690v-439q0 -77 -45.5 -123.5t-122.5 -46.5q-76 0 -122 47t-46 123v439l-412 690q-29 47 -29 90z" />
<glyph unicode="Z" horiz-adv-x="1403" d="M61 168q0 62 56 129l760 907h-586q-75 0 -124.5 38.5t-49.5 105.5q0 66 49.5 103.5t124.5 37.5h885q155 0 155 -156q0 -68 -47 -121l-772 -927h655q76 0 125 -37t49 -105q0 -69 -48.5 -106t-125.5 -37h-911q-97 0 -146 39t-49 129z" />
<glyph unicode="[" horiz-adv-x="721" d="M178 -207v1522q0 174 166 174h248q125 0 125 -111q0 -112 -125 -112h-143v-1424h143q125 0 125 -110q0 -113 -125 -113h-248q-73 0 -119.5 38.5t-46.5 135.5z" />
<glyph unicode="\" horiz-adv-x="758" d="M16 1419q0 46 34.5 75.5t72.5 29.5q52 0 76 -24t37 -60l489 -1301q16 -44 16 -69q0 -45 -34 -75t-72 -30q-52 0 -74 22.5t-39 61.5l-489 1303q-17 47 -17 67z" />
<glyph unicode="]" horiz-adv-x="721" d="M4 -268q0 110 125 110h143v1424h-143q-125 0 -125 112q0 111 125 111h248q74 0 120 -38t46 -136v-1522q0 -174 -166 -174h-248q-125 0 -125 113z" />
<glyph unicode="^" horiz-adv-x="1229" d="M137 684q0 42 27 92l315 580q28 51 60 69.5t75 18.5q44 0 77 -19t59 -69l315 -580q27 -52 27 -92q0 -74 -105 -74q-49 0 -81 16.5t-60 65.5l-232 428l-231 -428q-26 -48 -58 -65t-83 -17q-105 0 -105 74z" />
<glyph unicode="_" horiz-adv-x="1024" d="M-59 -207q0 23 16.5 37t42.5 14h1024q26 0 42.5 -13.5t16.5 -37.5t-17.5 -37.5t-41.5 -13.5h-1024q-24 0 -41.5 14t-17.5 37z" />
<glyph unicode="`" horiz-adv-x="569" d="M0 1460q0 40 27.5 77.5t83.5 37.5q33 0 65 -19t72 -53l151 -117q60 -48 60 -100q0 -48 -32.5 -74t-72.5 -26t-94 37l-184 127q-76 50 -76 110z" />
<glyph unicode="a" d="M84 281q0 119 54 191.5t146 107t218 49.5l182 20q64 7 96.5 30t32.5 83q0 61 -53.5 92t-134.5 31q-97 0 -137 -26.5t-101 -83t-108 -56.5q-55 0 -91 35t-36 82q0 100 129.5 186t345.5 86q109 0 198 -18.5t152.5 -55t99 -95t35.5 -140.5v-508q0 -57 5.5 -84.5t15.5 -63 t10 -55.5q0 -33 -18 -58.5t-49.5 -41t-67.5 -15.5q-168 0 -177 177q-83 -94 -183.5 -135.5t-225.5 -41.5q-86 0 -164 38t-126 108.5t-48 161.5zM383 295q0 -52 45.5 -87.5t120.5 -35.5q117 0 190.5 65.5t73.5 153.5v117q-32 -30 -129 -47l-109 -17q-98 -14 -145 -48 t-47 -101z" />
<glyph unicode="b" d="M119 117v1249q0 46 18.5 80.5t52.5 52t78 17.5q43 0 78 -17.5t53.5 -51.5t18.5 -81v-410h4q46 75 121.5 113.5t173.5 38.5q114 0 201.5 -44.5t145 -123.5t86 -179t28.5 -212q0 -139 -37.5 -250t-103 -183.5t-150 -107.5t-178.5 -35q-112 0 -195.5 48.5t-120.5 142.5h-4 v-47q0 -144 -135 -144t-135 144zM401 539q0 -141 59 -235.5t181 -94.5q58 1 103.5 27t75.5 71.5t44.5 104.5t14.5 127q0 131 -54 232t-184 101q-84 0 -139 -49t-78 -123t-23 -161z" />
<glyph unicode="c" horiz-adv-x="1100" d="M61 520q0 176 64.5 308t192 206t305.5 74q89 0 171 -23.5t140 -63.5t91.5 -92t33.5 -104q0 -62 -40 -96.5t-99 -34.5q-47 0 -68.5 19.5t-53 65.5t-71.5 69.5t-113 23.5q-47 0 -90 -17t-80.5 -58t-60.5 -110t-23 -167q0 -144 66.5 -227.5t185.5 -83.5q70 0 109 26 t74.5 75.5t61.5 71t77 21.5q54 0 89.5 -33.5t35.5 -82.5q0 -51 -28 -106t-86.5 -102.5t-145.5 -76.5t-195 -29q-180 0 -301.5 69t-181.5 192t-60 286z" />
<glyph unicode="d" d="M74 549q0 113 28 212t86 178.5t145.5 124t201.5 44.5q98 0 174.5 -39.5t119.5 -112.5h5v410q0 46 18.5 80.5t52.5 52t78 17.5q43 0 78 -17.5t53.5 -51.5t18.5 -81v-1249q0 -144 -136 -144q-66 0 -100.5 37t-34.5 107v47h-4q-35 -93 -119.5 -142t-195.5 -49 q-130 0 -236 64.5t-169.5 194t-63.5 317.5zM373 539q0 -140 61.5 -233.5t175.5 -96.5q122 0 181 93.5t59 236.5q0 136 -57 234.5t-183 98.5q-128 0 -182.5 -101.5t-54.5 -231.5z" />
<glyph unicode="e" horiz-adv-x="1253" d="M74 522q0 175 67.5 307.5t195.5 205.5t302 73q164 0 287.5 -70t188.5 -184.5t65 -239.5q0 -77 -27.5 -104t-103.5 -27h-676q0 -120 74 -197t202 -77q98 0 138.5 24t100 74.5t107.5 50.5q52 0 87.5 -37.5t35.5 -80.5q0 -86 -75 -146t-185 -90.5t-209 -30.5 q-198 0 -327 78.5t-188.5 203t-59.5 267.5zM373 657h524q-8 70 -43 124.5t-89 85t-120 30.5q-108 0 -177 -62.5t-95 -177.5z" />
<glyph unicode="f" horiz-adv-x="758" d="M27 983q0 50 28 74t90 24h68v152q0 92 45.5 157.5t120 99.5t164.5 34q86 0 141 -35.5t55 -108.5q0 -42 -28 -73t-68 -31q-6 0 -19 1.5t-26.5 3t-19.5 1.5q-32 0 -49 -19.5t-17 -50.5v-131h92q70 0 102.5 -22.5t32.5 -75.5q0 -54 -33.5 -77t-101.5 -23h-92v-758 q0 -74 -40 -113t-110 -39q-69 0 -109 39t-40 113v758h-68q-62 0 -90 24.5t-28 75.5z" />
<glyph unicode="g" d="M74 535q0 140 36.5 249.5t101.5 181t149 107t182 35.5q74 0 134.5 -21.5t106.5 -61.5t74 -97h4v39q0 68 34 104.5t101 36.5q136 0 136 -141v-879q0 -132 -39 -233.5t-110.5 -167t-169.5 -97.5t-214 -32q-115 0 -218 32t-167.5 89t-64.5 128q0 37 17 66.5t45 46.5t60 17 q41 0 71.5 -19.5t74.5 -59.5t80.5 -58.5t91.5 -18.5q137 0 196.5 76t59.5 256v61h-4q-41 -61 -121.5 -103t-167.5 -42q-154 0 -261.5 63.5t-162.5 177.5t-55 265zM373 545q0 -118 60 -205.5t177 -87.5q106 0 171 75.5t65 229.5q0 315 -221 315q-136 0 -194 -87t-58 -240z " />
<glyph unicode="h" d="M119 125v1241q0 46 18.5 80.5t52.5 52t78 17.5q43 0 78 -17.5t53.5 -51.5t18.5 -81v-416h4q120 158 334 158q75 0 140.5 -20t119 -65t85.5 -122.5t32 -189.5v-586q0 -152 -150 -152q-149 0 -149 152v526q0 62 -20.5 109t-62.5 73.5t-106 26.5q-86 0 -156.5 -65.5 t-70.5 -171.5v-498q0 -152 -150 -152q-149 0 -149 152z" />
<glyph unicode="i" horiz-adv-x="569" d="M129 1368q0 64 45 110t111 46q41 0 77 -21t57 -57.5t21 -77.5q0 -65 -45.5 -111.5t-109.5 -46.5t-110 47t-46 111zM135 125v833q0 150 150 150q81 0 115 -40.5t34 -109.5v-833q0 -152 -149 -152q-150 0 -150 152z" />
<glyph unicode="j" horiz-adv-x="569" d="M-35 -297q0 55 23 79.5t71 24.5h33q43 0 43 54v1097q0 150 150 150q81 0 115 -40.5t34 -109.5v-1067q0 -166 -70.5 -242.5t-234.5 -76.5q-84 0 -124 32t-40 99zM129 1368q0 64 45 110t111 46q41 0 77 -21t57 -57.5t21 -77.5q0 -65 -45.5 -111.5t-109.5 -46.5t-110 47 t-46 111z" />
<glyph unicode="k" horiz-adv-x="1100" d="M119 125v1241q0 46 18.5 80.5t52.5 52t78 17.5q43 0 78 -17.5t53.5 -51.5t18.5 -81v-688l332 373q53 57 114 57q53 0 97.5 -39.5t44.5 -95.5q0 -36 -9.5 -53.5t-35.5 -47.5l-222 -233l312 -422q30 -42 30 -96q0 -38 -19 -73t-51.5 -55t-70.5 -20q-88 0 -135 70l-283 403 l-104 -92v-229q0 -74 -40 -113t-110 -39q-69 0 -109 39t-40 113z" />
<glyph unicode="l" horiz-adv-x="569" d="M135 125v1241q0 47 18.5 81t53.5 51.5t78 17.5q44 0 78 -17.5t52.5 -52t18.5 -80.5v-1241q0 -74 -40 -113t-109 -39q-68 0 -109 39t-41 113z" />
<glyph unicode="m" horiz-adv-x="1896" d="M119 125v833q0 69 38 109.5t103 40.5t103 -40.5t38 -109.5v-40h5q59 91 151.5 140.5t208.5 49.5q87 0 168 -46t119 -144q67 94 151 142t201 48q80 0 148.5 -19.5t118 -62t78 -113t28.5 -170.5v-618q0 -152 -150 -152q-149 0 -149 152v541q0 87 -40 140.5t-124 53.5 q-58 0 -108 -29t-79.5 -82.5t-29.5 -121.5v-502q0 -152 -150 -152q-149 0 -149 152v541q0 87 -40 140.5t-124 53.5q-58 0 -108 -29t-79.5 -82.5t-29.5 -121.5v-502q0 -152 -150 -152q-149 0 -149 152z" />
<glyph unicode="n" d="M119 125v833q0 150 135 150t135 -150v-40h4q69 92 155 141t208 49q75 0 140.5 -20t119 -65t85.5 -122.5t32 -189.5v-586q0 -152 -150 -152q-149 0 -149 152v526q0 62 -20.5 109t-62.5 73.5t-106 26.5q-86 0 -156.5 -65.5t-70.5 -171.5v-498q0 -152 -150 -152 q-149 0 -149 152z" />
<glyph unicode="o" horiz-adv-x="1253" d="M74 543q0 161 64 289.5t189 202t300 73.5t299.5 -73.5t189 -201.5t64.5 -290q0 -118 -30 -220.5t-95.5 -181t-173 -123.5t-254.5 -45q-145 0 -253 45t-174 124t-96 181t-30 220zM373 543q0 -97 27.5 -175t85 -124.5t141.5 -46.5q127 0 190.5 98t63.5 248q0 100 -27.5 177 t-85 121t-141.5 44q-125 0 -189.5 -93.5t-64.5 -248.5z" />
<glyph unicode="p" d="M119 -276v1243q0 141 135 141t135 -141v-49h4q36 95 118.5 142.5t197.5 47.5q97 0 181 -35.5t148.5 -107t102 -181t37.5 -249.5q0 -111 -28.5 -212.5t-85.5 -180t-145 -124t-202 -45.5q-209 0 -295 154h-4v-403q0 -73 -40.5 -112.5t-109.5 -39.5q-68 0 -108.5 39.5 t-40.5 112.5zM401 545q0 -136 57.5 -236t182.5 -100q129 0 183.5 101.5t54.5 234.5q0 141 -61.5 232.5t-176.5 94.5q-84 0 -137.5 -44.5t-78 -118.5t-24.5 -164z" />
<glyph unicode="q" d="M74 535q0 188 63.5 316.5t169.5 192.5t236 64q113 0 197 -48.5t118 -141.5h4v49q0 68 34 104.5t101 36.5q136 0 136 -141v-1243q0 -73 -40.5 -112.5t-109.5 -39.5q-68 0 -108.5 39.5t-40.5 112.5v403h-5q-86 -154 -294 -154q-114 0 -202 45.5t-145.5 124.5t-85.5 179 t-28 213zM373 545q0 -132 55 -234t182 -102q126 0 183 99t57 237q0 142 -58.5 234.5t-181.5 92.5q-114 -3 -175.5 -95.5t-61.5 -231.5z" />
<glyph unicode="r" horiz-adv-x="834" d="M135 125v844q0 66 38 102.5t97 36.5t97.5 -36.5t38.5 -102.5v-117h4q30 112 88.5 184t158.5 72q46 0 84 -19t59 -53t21 -73q0 -79 -42 -115.5t-105 -36.5h-53q-94 0 -140.5 -77.5t-46.5 -258.5v-350q0 -152 -149 -152q-150 0 -150 152z" />
<glyph unicode="s" horiz-adv-x="1100" d="M72 244q0 54 31 90.5t90 36.5q50 0 119.5 -66t109 -93.5t133.5 -27.5q78 0 126 31t48 78q0 53 -37 73t-135 44l-176 43q-92 22 -161.5 59t-108.5 101t-39 159q0 115 65.5 191t168.5 110.5t214 34.5q115 0 221 -28.5t171 -81t65 -119.5q0 -54 -34.5 -92.5t-90.5 -38.5 q-46 0 -108.5 50.5t-91 68.5t-109.5 18t-126.5 -22.5t-45.5 -69.5q0 -48 35.5 -68t123.5 -41l125 -29q162 -36 267.5 -108t105.5 -213q0 -87 -39.5 -157.5t-104.5 -114.5t-147 -66.5t-170 -22.5q-204 0 -349.5 79t-145.5 192z" />
<glyph unicode="t" horiz-adv-x="758" d="M27 983q0 50 28 74t90 24h52v185q0 74 40.5 112.5t108.5 38.5q69 0 109.5 -38.5t40.5 -112.5v-185h90q70 0 102.5 -22.5t32.5 -75.5q0 -54 -33.5 -77t-101.5 -23h-90v-604q0 -70 77 -69h43q49 0 77 -26.5t28 -74.5q0 -67 -55 -101.5t-162 -34.5t-175.5 30t-100 89.5 t-31.5 149.5v641h-52q-62 0 -90 24.5t-28 75.5z" />
<glyph unicode="u" d="M119 371v587q0 69 34 109.5t115 40.5q82 0 116 -40.5t34 -109.5v-528q0 -96 48 -152.5t140 -56.5q86 0 157 66t71 172v499q0 150 149 150q82 0 116 -40.5t34 -109.5v-833q0 -152 -136 -152q-135 0 -135 152v39h-4q-69 -92 -155.5 -141.5t-206.5 -49.5q-71 0 -138 20.5 t-120.5 66t-86 123.5t-32.5 188z" />
<glyph unicode="v" horiz-adv-x="1024" d="M14 952q0 75 43.5 115.5t102.5 40.5q73 0 105.5 -40t43.5 -85l201 -684h4l201 684q11 45 44 85t105 40q39 0 71.5 -17.5t53.5 -52t21 -86.5q0 -19 -19 -78l-282 -794q-13 -37 -24 -55t-29.5 -29.5t-55 -17t-88.5 -5.5t-87 5.5t-55.5 18t-29 27t-25.5 56.5l-282 794 q-19 59 -19 78z" />
<glyph unicode="w" horiz-adv-x="1593" d="M27 969q0 58 43.5 98.5t101.5 40.5q50 0 80 -17t42 -45.5t25 -82.5l158 -664h4l127 602q15 73 32 114.5t54.5 67t102.5 25.5q97 0 135 -50.5t61 -156.5l129 -602h4l148 664q16 77 44.5 111t102.5 34q38 0 71.5 -18.5t54 -50.5t20.5 -70q0 -44 -21 -113l-219 -719 q-22 -75 -43.5 -108t-54 -44.5t-96.5 -11.5q-63 0 -97.5 14t-54.5 48.5t-35 95.5l-147 594h-4l-148 -594q-16 -65 -35 -97.5t-53.5 -46.5t-97.5 -14q-65 0 -97.5 11.5t-54 44.5t-43.5 108l-219 719q-20 66 -20 113z" />
<glyph unicode="x" horiz-adv-x="985" d="M33 115q0 37 41 96l229 342l-215 326q-31 43 -31 79q0 56 42 103t118 47q75 0 121 -76l168 -278l162 266q32 53 64.5 70.5t72.5 17.5q52 0 93.5 -39t41.5 -90q0 -60 -31 -102l-217 -324l232 -348q28 -40 28 -90q0 -57 -40.5 -99.5t-110.5 -42.5q-44 0 -75 24.5t-62 74.5 l-172 278l-197 -317q-41 -60 -117 -60q-55 0 -100 41t-45 101z" />
<glyph unicode="y" horiz-adv-x="1024" d="M25 965q0 62 42.5 102.5t102.5 40.5t100.5 -31t53.5 -82l192 -706h4l182 686q37 133 144 133q80 0 116.5 -46.5t36.5 -88.5q0 -36 -22 -96l-346 -992q-38 -108 -81 -176t-106.5 -102.5t-154.5 -34.5q-94 0 -141.5 40t-47.5 99q0 57 38 89t100 32h30q38 0 64 17t41 79 l-312 895q-23 68 -29.5 92.5t-6.5 49.5z" />
<glyph unicode="z" horiz-adv-x="1139" d="M61 119q0 66 39 108l564 619h-433q-46 0 -83 29t-37 90q0 59 36 87.5t84 28.5h711q60 0 91.5 -35.5t31.5 -95.5q0 -52 -47 -102l-553 -612h491q48 0 84.5 -29t36.5 -88q0 -61 -36.5 -90t-84.5 -29h-761q-64 0 -99 34.5t-35 84.5z" />
<glyph unicode="{" horiz-adv-x="721" d="M4 555q0 40 25 69t73 29q49 0 77 27.5t28 112.5v421q0 93 29 154.5t88 91t149 29.5h152q42 0 67 -24t25 -68q0 -94 -92 -94h-52q-96 0 -96 -123v-414q0 -123 -63 -162.5t-152 -46.5v-4q89 -7 152 -46.5t63 -162.5v-414q0 -125 96 -125h52q28 0 49 -10t32 -29.5t11 -52.5 q0 -44 -25 -69t-67 -25h-152q-133 0 -199.5 67t-66.5 208v423q0 85 -28 111.5t-77 26.5q-48 0 -73 29.5t-25 70.5z" />
<glyph unicode="|" horiz-adv-x="455" d="M104 98v1293q0 59 31.5 96t91.5 37q59 0 91 -37t32 -96v-1293q0 -59 -31.5 -96t-91.5 -37q-59 0 -91 37t-32 96z" />
<glyph unicode="}" horiz-adv-x="721" d="M4 -287q0 46 25.5 69t66.5 23h51q97 0 97 125v414q0 122 63 162t152 47v4q-55 5 -100 19t-80 59.5t-35 130.5v414q0 123 -97 123h-51q-92 0 -92 94q0 44 25.5 68t66.5 24h152q90 0 149 -29.5t88 -91t29 -154.5v-421q0 -85 28 -112.5t76 -27.5q49 0 74 -29t25 -69t-25 -70 t-74 -30q-48 0 -76 -26.5t-28 -111.5v-423q0 -140 -66 -207.5t-200 -67.5h-152q-40 0 -66 25t-26 69z" />
<glyph unicode="~" horiz-adv-x="1229" d="M84 506q0 66 36.5 129t102 104t150.5 41q57 0 119.5 -19t120 -45t121 -51.5t95.5 -25.5q38 0 64.5 15.5t60 48t54.5 47t49 14.5q46 0 67 -29.5t21 -70.5q0 -101 -85 -187t-216 -86q-54 0 -108.5 17.5t-139 55t-124.5 53t-73 15.5q-36 0 -65.5 -17t-63 -49.5t-52 -45 t-46.5 -12.5q-45 0 -66.5 29.5t-21.5 68.5z" />
<glyph horiz-adv-x="1802" d="M0 264q2 89 61 156t152 67q23 0 36 -13t13 -36q0 -28 -48 -49.5t-71.5 -41.5t-23.5 -81q0 -65 49 -100t123 -35q2 1 4 1.5t4 0.5q70 0 138.5 26t113.5 75t45 114q0 50 -30 107t-88 143.5t-88 150.5t-30 130q0 201 197 376q89 81 204 138t218 57q70 0 117 -37t47 -106 q0 -22 -6 -43q88 80 202.5 136t219.5 56q70 0 116.5 -37t46.5 -106q0 -84 -59.5 -164t-146.5 -150q-72 -54 -145.5 -97.5t-123.5 -43.5q-19 0 -38 14t-19 33l2 4q0 40 70 66q110 36 206 110q73 59 109.5 113t36.5 92q0 31 -19 48.5t-53 17.5q-65 0 -150 -40t-147 -89 q-76 -58 -134 -146.5t-58 -173.5q0 -70 30.5 -134t90.5 -155.5t91 -151t31 -116.5q0 -92 -64 -164.5t-162 -111.5t-187 -39q-191 0 -262 110q-61 -54 -149 -85t-169 -31q-102 0 -170.5 33t-100.5 87t-32 115zM473 901q0 -55 20.5 -108t45 -94t76.5 -123t69 -119 q61 37 109 37q21 0 35 -14t14 -36q0 -19 -12.5 -29.5t-40 -21t-46.5 -22t-32 -36t-13 -77.5q6 -57 54 -89t118 -32q2 1 4 1.5t5 0.5q70 0 138.5 26t113.5 75t45 114q0 50 -30 107t-88 143.5t-88 150.5t-30 130q0 69 23 135q-5 -4 -14 -14t-13 -13q-65 -51 -142.5 -96 t-125.5 -45q-20 0 -39 14t-19 33l2 4q0 40 70 66q108 35 207 110q72 60 108.5 113.5t36.5 91.5q0 31 -19 48.5t-52 17.5q-64 0 -148.5 -39.5t-148.5 -89.5q-78 -59 -135.5 -147t-57.5 -173zM1300 86q0 60 68 212t151 281.5t115 129.5q16 0 27.5 -10.5t11.5 -28.5 q0 -15 -55.5 -101t-110.5 -193t-98 -251q-14 -50 -24 -69t-39 -19q-20 0 -33 15t-13 34zM1706 954q0 26 21 62t50.5 62t55.5 26q24 0 36.5 -13.5t12.5 -35.5q0 -27 -21.5 -63.5t-51.5 -62.5t-56 -26q-47 0 -47 51z" />
<glyph unicode="&#xa1;" horiz-adv-x="647" d="M156 934q0 46 23 84.5t60.5 61t84.5 22.5q46 0 84.5 -22.5t61 -61t22.5 -84.5q0 -69 -49.5 -119.5t-118.5 -50.5t-118.5 50.5t-49.5 119.5zM162 -29q0 31 8 97l63 485q7 44 28 60t63 16t63 -16t27 -60l63 -485q8 -66 8 -97v-239q0 -78 -41.5 -119t-119.5 -41 q-162 0 -162 160v239z" />
<glyph unicode="&#xa2;" horiz-adv-x="1253" d="M137 520q0 245 125 402.5t356 179.5v137q0 27 18.5 48.5t43.5 21.5t43 -21t18 -49v-133q111 -7 202 -49t141.5 -104t50.5 -128q0 -62 -40 -96.5t-100 -34.5q-41 0 -63.5 18t-51.5 58t-57.5 64t-81.5 32v-651q49 10 76 34.5t59 68.5t59 64.5t75 20.5q54 0 89.5 -33.5 t35.5 -82.5q0 -63 -45 -131.5t-134 -118t-215 -60.5v-145q0 -28 -18 -49t-43 -21t-43.5 21.5t-18.5 48.5v145q-238 18 -359.5 164.5t-121.5 378.5zM436 520q0 -121 47.5 -200t134.5 -101v641q-52 -15 -92 -54t-65 -111t-25 -175z" />
<glyph unicode="&#xa3;" horiz-adv-x="1253" d="M78 713q0 47 25.5 73.5t70.5 26.5h43q-61 87 -61 221q0 94 38.5 174.5t108.5 139t164.5 90.5t202.5 32q130 0 230.5 -31t167.5 -83t100.5 -115.5t33.5 -126.5q0 -68 -42.5 -105.5t-110.5 -37.5q-59 0 -79.5 25t-53 92.5t-77 101t-137.5 33.5q-96 0 -165.5 -56t-69.5 -151 q0 -77 68 -203h223q127 0 127 -100q0 -99 -127 -99h-162q10 -27 10 -49q0 -87 -59.5 -171.5t-149.5 -153.5l4 -4q31 13 58.5 24.5t50 19t53 13.5t66.5 6q74 0 169 -20.5t142 -20.5q11 0 73 11.5t79 11.5q55 0 86.5 -37.5t31.5 -93.5q0 -61 -33 -100t-87.5 -58t-114.5 -19 q-44 0 -106 13.5t-126 29.5t-122.5 25.5t-116.5 9.5q-59 0 -97 -11t-67 -28q-12 -6 -31 -16.5t-35 -16.5t-36 -6q-62 0 -97 40.5t-35 103.5q0 44 21 72.5t78.5 89.5t85.5 111t28 120q0 49 -22 104h-109q-51 0 -80.5 25t-29.5 74z" />
<glyph unicode="&#xa4;" horiz-adv-x="1253" d="M104 303q0 42 33 74l56 53q-89 130 -89 291q0 160 86 293l-55 51q-31 35 -31 76q0 25 15.5 51.5t40.5 41.5t51 15q51 0 86 -35l47 -49q131 84 283 84q154 0 282 -84l47 49q35 35 86 35q44 0 75.5 -32.5t31.5 -75.5t-31 -74l-55 -53q86 -138 86 -293q0 -75 -23 -151.5 t-63 -139.5l55 -53q31 -31 31 -74q0 -41 -31.5 -74.5t-75.5 -33.5q-51 0 -86 34l-49 50q-128 -84 -280 -84q-153 0 -281 84l-49 -50q-35 -34 -86 -34q-41 0 -74 34t-33 74zM350 721q0 -77 37 -144.5t100 -107t140 -39.5q76 0 139 39.5t100 107t37 144.5q0 78 -37 146 t-100 107.5t-139 39.5q-77 0 -140 -39.5t-100 -107.5t-37 -146z" />
<glyph unicode="&#xa5;" horiz-adv-x="1253" d="M37 1319q0 77 55 114t121 37q93 0 139 -96l275 -528l274 528q46 96 139 96q66 0 121.5 -36.5t55.5 -114.5q0 -32 -29 -84l-270 -449h124q36 0 58 -23t22 -58q0 -34 -23 -57t-57 -23h-219l-35 -60v-61h254q34 0 57 -23t23 -57q0 -32 -23 -56t-57 -24h-254v-205 q0 -75 -43 -120.5t-118 -45.5q-76 0 -119 45.5t-43 120.5v205h-254q-32 0 -56 24t-24 56q0 34 24 57t56 23h254v61l-35 60h-219q-32 0 -56 23t-24 57q0 35 23 58t57 23h125l-270 449q-29 48 -29 84z" />
<glyph unicode="&#xa6;" horiz-adv-x="455" d="M104 92v391q0 57 31.5 93t91.5 36t91.5 -36t31.5 -93v-391q0 -55 -32 -91t-91 -36t-91 36t-32 91zM104 1006v391q0 55 31.5 91t91.5 36t91.5 -36t31.5 -91v-391q0 -56 -32 -92.5t-91 -36.5t-91 36.5t-32 92.5z" />
<glyph unicode="&#xa7;" d="M115 602q0 115 55 188.5t164 133.5q-57 38 -91 98.5t-34 124.5q0 122 58 207t156.5 127.5t213.5 42.5q125 0 218 -47t142.5 -117t49.5 -135q0 -31 -15 -60t-41 -46t-59 -17q-48 0 -67.5 23t-52 82t-70 88.5t-111.5 29.5q-78 0 -121 -40.5t-43 -92.5q0 -38 17.5 -67 t47 -52t62.5 -39t61 -30l174 -93q160 -79 234 -164t74 -210q0 -112 -55.5 -195t-151.5 -125q59 -33 92 -97.5t33 -139.5q0 -115 -58 -197t-154.5 -124t-205.5 -42q-152 0 -251.5 50t-146 120t-46.5 133q0 49 32 83t84 34q46 0 70.5 -26t60 -82t76 -84.5t111.5 -28.5 q37 0 77.5 13t66.5 43.5t26 78.5q0 37 -19.5 65t-57 54t-81 48t-123.5 62q-113 56 -167.5 86.5t-110.5 77t-89.5 110.5t-33.5 148zM348 649q0 -36 22 -75.5t58 -61.5l348 -188q50 12 88.5 58t38.5 110q0 54 -29.5 91.5t-99.5 73.5l-301 162q-41 -27 -65 -47t-42 -51t-18 -72 z" />
<glyph unicode="&#xa8;" horiz-adv-x="569" d="M-74 1370q0 62 45 106t105 44q42 0 76 -20.5t53.5 -54.5t19.5 -75q0 -42 -20 -76.5t-54 -54.5t-75 -20q-60 0 -105 44t-45 107zM344 1370q0 62 45 106t105 44q41 0 75 -20.5t54 -54.5t20 -75q0 -42 -20.5 -77t-54.5 -54.5t-74 -19.5q-60 0 -105 44t-45 107z" />
<glyph unicode="&#xa9;" horiz-adv-x="1638" d="M47 745q0 237 107 414.5t284 271t381 93.5q150 0 290 -52t249 -153t171 -247.5t62 -326.5t-62 -326t-171 -247t-249 -154t-290 -53t-289.5 53t-248.5 154t-171.5 247t-62.5 326zM281 745q0 -173 71 -308t194.5 -210t272.5 -75q110 0 208.5 42.5t174 123.5t116 189.5 t40.5 237.5t-41 238t-116 189t-173.5 122.5t-208.5 42.5q-149 0 -272.5 -75t-194.5 -210t-71 -307zM438 752q0 197 110.5 323.5t297.5 126.5q77 0 142 -23t109.5 -60.5t67.5 -82t23 -86.5q0 -53 -29 -78.5t-57 -25.5q-44 0 -60 17.5t-40 62t-56.5 67.5t-99.5 23 q-85 0 -136 -71t-51 -189q0 -117 52 -193t139 -76q60 0 92 23.5t59 68.5t47 65t62 20q39 0 62.5 -24.5t23.5 -66.5q0 -44 -43 -110t-122.5 -114t-180.5 -48q-120 0 -214.5 59t-146 163t-51.5 229z" />
<glyph unicode="&#xaa;" horiz-adv-x="813" d="M53 975q0 101 72 146t201 61l118 14q37 5 55.5 18t18.5 48q0 71 -112 71q-59 0 -82 -13.5t-67.5 -48t-76.5 -34.5q-38 0 -62 20t-24 48q0 62 85.5 113.5t228.5 51.5q96 0 167.5 -19.5t111.5 -61.5t40 -105v-303q0 -35 4.5 -56t10.5 -38t6 -29q0 -31 -27.5 -50.5 t-65.5 -19.5q-110 0 -114 105q-102 -105 -267 -105q-86 0 -153.5 52t-67.5 135zM262 991q0 -67 94 -67q78 0 120 35t42 88v63q-22 -20 -74 -29l-69 -10q-113 -17 -113 -80z" />
<glyph unicode="&#xab;" horiz-adv-x="1214" d="M145 571q0 101 70 150l201 147q44 33 80 33q40 0 68 -32t28 -74q0 -64 -66 -109l-168 -115l168 -116q66 -45 66 -107q0 -43 -27.5 -75.5t-68.5 -32.5q-34 0 -80 32l-201 148q-70 49 -70 151zM623 571q0 45 17 85.5t52 64.5l201 147q44 33 80 33q40 0 68 -32t28 -74 q0 -64 -65 -109l-168 -115l168 -116q65 -45 65 -107q0 -43 -27.5 -75.5t-68.5 -32.5q-34 0 -80 32l-201 148q-36 26 -52.5 65.5t-16.5 85.5z" />
<glyph unicode="&#xac;" horiz-adv-x="1229" d="M35 829q0 56 39.5 90.5t103.5 34.5h852q92 0 128 -35.5t36 -117.5v-420q0 -64 -33.5 -104.5t-89.5 -40.5t-89.5 40.5t-33.5 104.5v324h-770q-62 0 -102.5 38t-40.5 86z" />
<glyph unicode="&#xad;" horiz-adv-x="834" d="M82 571q0 74 45.5 108t120.5 34h338q76 0 121 -33.5t45 -108.5q0 -76 -45 -109.5t-121 -33.5h-338q-166 0 -166 143z" />
<glyph unicode="&#xae;" horiz-adv-x="1638" d="M47 745q0 238 107.5 415.5t284.5 270.5t380 93q150 0 290 -52t249 -153t171 -247.5t62 -326.5t-62 -326t-171 -247t-249 -154t-290 -53q-148 0 -288.5 53t-249.5 154t-171.5 247t-62.5 326zM281 745q0 -173 71 -308t194.5 -210t272.5 -75q110 0 208.5 42.5t174 123.5 t116 189.5t40.5 237.5t-41 238t-116 189t-173.5 122.5t-208.5 42.5q-149 0 -272.5 -75t-194.5 -210t-71 -307zM514 434v635q0 44 27.5 69t64.5 25h260q149 0 223 -56t74 -196q0 -108 -55.5 -169t-134.5 -66l135 -182q27 -38 27 -82q0 -27 -25 -49.5t-63 -22.5q-31 0 -57 16 t-50 50l-188 270h-54v-242q0 -46 -26 -70t-66 -24q-38 0 -65 24.5t-27 69.5zM698 825h158q51 0 81 20.5t30 74.5q0 94 -111 94h-158v-189z" />
<glyph unicode="&#xaf;" horiz-adv-x="569" d="M-90 1370q0 44 28 68t74 24h545q46 0 74 -24t28 -68t-28 -69t-74 -25h-545q-46 0 -74 25t-28 69z" />
<glyph unicode="&#xb0;" horiz-adv-x="819" d="M117 1176q0 81 38.5 147.5t105.5 106.5t149 40q80 0 148 -40t106 -106.5t38 -147.5q0 -124 -84.5 -210.5t-207.5 -86.5q-122 0 -207.5 86.5t-85.5 210.5zM264 1176q0 -60 44 -104t102 -44q38 0 71.5 20t53.5 54t20 74q0 38 -20 71.5t-53.5 53.5t-71.5 20q-58 0 -102 -43 t-44 -102z" />
<glyph unicode="&#xb1;" horiz-adv-x="1229" d="M35 125q0 56 39 89.5t104 33.5h873q65 0 104 -33.5t39 -89.5q0 -50 -40 -87.5t-103 -37.5h-873q-63 0 -103 37.5t-40 87.5zM35 754q0 55 39 89t104 34h314v149q0 63 33 104t89 41q57 0 90 -41t33 -104v-149h314q65 0 104 -34t39 -89q0 -50 -40 -87.5t-103 -37.5h-314 v-150q0 -64 -33.5 -103.5t-89.5 -39.5q-55 0 -88.5 39.5t-33.5 103.5v150h-314q-63 0 -103 37.5t-40 87.5z" />
<glyph unicode="&#xb2;" horiz-adv-x="788" d="M41 690q0 68 59 136t179 139q131 76 166.5 98.5t56 52.5t20.5 80q0 46 -39 73t-94 27q-121 0 -160 -106q-14 -39 -30.5 -55.5t-53.5 -16.5q-98 0 -98 86q0 74 47.5 135t130.5 96t178 35q106 0 182 -31.5t117 -87t41 -126.5q0 -117 -46.5 -181t-159.5 -124 q-142 -74 -189.5 -101t-58.5 -47h360q99 0 99 -94q0 -51 -25 -71.5t-74 -20.5h-499q-54 0 -81.5 30t-27.5 74z" />
<glyph unicode="&#xb3;" horiz-adv-x="788" d="M31 786q0 39 27.5 62.5t72.5 23.5q39 0 55 -14t38.5 -47.5t50 -49.5t87.5 -16q72 0 110 31.5t38 77.5q0 45 -25.5 72.5t-89.5 34.5q-46 5 -78 18.5t-32 52.5q0 50 27 67.5t89 20.5q43 3 65.5 28t22.5 64q0 40 -33.5 62t-86.5 22q-52 0 -80 -15.5t-52 -45.5t-40 -42.5 t-52 -12.5q-94 0 -94 73q0 71 51.5 120t127 73t149.5 24q169 0 250.5 -69.5t81.5 -171.5q0 -118 -127 -172v-4q147 -33 147 -191q0 -141 -103 -216t-263 -75q-169 0 -251.5 72t-82.5 143z" />
<glyph unicode="&#xb4;" horiz-adv-x="569" d="M111 1286q0 28 13 50.5t46 49.5l152 117q40 34 72 53t65 19q56 0 83 -38t27 -77q0 -61 -75 -110l-185 -127q-54 -37 -94 -37q-38 0 -71 26.5t-33 73.5z" />
<glyph unicode="&#xb5;" d="M119 -276v1234q0 69 34 109.5t115 40.5q82 0 116 -40.5t34 -109.5v-528q0 -96 48 -152.5t140 -56.5q86 0 157 66t71 172v499q0 150 149 150q82 0 116 -40.5t34 -109.5v-833q0 -152 -136 -152q-135 0 -135 152v39h-4q-65 -86 -152.5 -138.5t-168.5 -52.5q-87 0 -119 27 v-276q0 -73 -40.5 -112.5t-109.5 -39.5q-68 0 -108.5 39.5t-40.5 112.5z" />
<glyph unicode="&#xb6;" horiz-adv-x="1270" d="M20 1120q0 109 37.5 181.5t105 114t156.5 57.5t205 16h520q58 0 90.5 -33.5t32.5 -89.5v-1597q0 -55 -33 -90t-90 -35q-56 0 -89 35t-33 90v1534h-199v-1534q0 -55 -33 -90t-90 -35t-90 35t-33 90v999q-148 0 -250.5 42t-154.5 121.5t-52 188.5z" />
<glyph unicode="&#xb8;" horiz-adv-x="569" d="M63 -358q0 21 14.5 38t35.5 17q12 0 50.5 -12.5t61.5 -12.5q34 0 53 20t19 48q0 53 -51 53q-14 0 -20 -0.5t-15 -1.5t-16.5 -2.5t-14.5 -1.5q-47 0 -47 41q0 16 23 49l80 123h114l-76 -115h15q87 0 139.5 -35t52.5 -108q0 -83 -73 -133.5t-175 -50.5q-84 0 -127 26 t-43 58z" />
<glyph unicode="&#xb9;" horiz-adv-x="543" d="M-25 1206q0 28 9.5 43.5t29.5 22.5t58 14l49 8q48 9 72.5 33t46 64t41 59.5t59.5 19.5q90 0 90 -84v-698q0 -51 -25.5 -79.5t-85.5 -28.5q-110 0 -110 108v440h-162q-72 0 -72 78z" />
<glyph unicode="&#xba;" horiz-adv-x="815" d="M47 1128q0 97 41.5 175t123 122.5t196.5 44.5q114 0 195.5 -44.5t123 -122.5t41.5 -175q0 -92 -36 -170t-117.5 -124t-206.5 -46q-185 0 -273 96.5t-88 243.5zM256 1128q0 -87 38.5 -145.5t113.5 -58.5q76 0 113.5 58.5t37.5 145.5q0 94 -37 149.5t-114 55.5 q-76 0 -114 -55.5t-38 -149.5z" />
<glyph unicode="&#xbb;" horiz-adv-x="1214" d="M145 348q0 62 66 107l168 116l-168 115q-66 45 -66 109q0 42 28.5 74t68.5 32q34 0 80 -33l200 -147q70 -49 70 -150q0 -46 -18 -86.5t-52 -64.5l-200 -148q-22 -16 -40 -24t-40 -8q-40 0 -68.5 32.5t-28.5 75.5zM623 348q0 63 65 107l168 116l-168 115q-65 44 -65 109 q0 42 28.5 74t67.5 32q34 0 80 -33l200 -147q36 -24 53 -63t17 -87q0 -49 -17 -87t-53 -64l-200 -148q-22 -16 -40 -24t-40 -8q-39 0 -67.5 32.5t-28.5 75.5z" />
<glyph unicode="&#xbc;" horiz-adv-x="1876" d="M-25 1206q0 28 9.5 43.5t29.5 22.5t58 14l49 8q48 9 72.5 33t46 64t41 59.5t59.5 19.5q90 0 90 -84v-698q0 -51 -25.5 -79.5t-85.5 -28.5q-110 0 -110 108v440h-162q-72 0 -72 78zM354 -10q0 29 23 69l737 1407q30 58 80 58q33 0 56.5 -21.5t23.5 -48.5q0 -29 -23 -70 l-737 -1407q-31 -57 -80 -57q-32 0 -56 21.5t-24 48.5zM1047 276q0 53 20 76l385 473q25 30 51.5 44t71.5 14q50 0 81.5 -26t31.5 -69v-438h49q35 0 54 -22.5t19 -59.5q0 -35 -19.5 -57.5t-53.5 -22.5h-49v-110q0 -86 -105 -86q-56 0 -80 22.5t-24 63.5v110h-330 q-47 0 -74.5 27.5t-27.5 60.5zM1241 350h238v299h-4z" />
<glyph unicode="&#xbd;" horiz-adv-x="1876" d="M-25 1206q0 28 9.5 43.5t29.5 22.5t58 14l49 8q48 9 72.5 33t46 64t41 59.5t59.5 19.5q90 0 90 -84v-698q0 -51 -25.5 -79.5t-85.5 -28.5q-110 0 -110 108v440h-162q-72 0 -72 78zM354 -10q0 29 23 69l737 1407q30 58 80 58q33 0 56.5 -21.5t23.5 -48.5q0 -29 -23 -70 l-737 -1407q-31 -57 -80 -57q-32 0 -56 21.5t-24 48.5zM1104 106q0 45 25.5 89.5t78 89.5t133.5 94q142 83 172 101.5t51 48.5t21 81q0 45 -39 73t-94 28q-121 0 -160 -107q-14 -39 -30 -54t-54 -15q-98 0 -98 83q0 74 48 135.5t130.5 96.5t177.5 35q102 0 180 -32 t119 -87.5t41 -126.5q0 -117 -46.5 -180.5t-160.5 -122.5q-60 -33 -119.5 -64.5t-89.5 -52t-38 -33.5h360q98 0 98 -94q0 -92 -98 -92h-500q-53 0 -80.5 29.5t-27.5 76.5z" />
<glyph unicode="&#xbe;" horiz-adv-x="1876" d="M31 786q0 39 27.5 62.5t72.5 23.5q39 0 55 -14t38.5 -47.5t50 -49.5t87.5 -16q72 0 110 31.5t38 77.5q0 45 -25.5 72.5t-89.5 34.5q-46 5 -78 18.5t-32 52.5q0 50 27 67.5t89 20.5q43 3 65.5 28t22.5 64q0 40 -33.5 62t-86.5 22q-52 0 -80 -15.5t-52 -45.5t-40 -42.5 t-52 -12.5q-94 0 -94 73q0 71 51.5 120t127 73t149.5 24q169 0 250.5 -69.5t81.5 -171.5q0 -118 -127 -172v-4q147 -33 147 -191q0 -141 -103 -216t-263 -75q-169 0 -251.5 72t-82.5 143zM500 -10q0 28 22 69l738 1407q30 58 79 58q33 0 56.5 -21.5t23.5 -48.5 q0 -28 -22 -70l-738 -1407q-31 -57 -79 -57q-32 0 -56 21.5t-24 48.5zM1047 276q0 53 20 76l385 473q25 30 51.5 44t71.5 14q50 0 81.5 -26t31.5 -69v-438h49q35 0 54 -22.5t19 -59.5q0 -35 -19.5 -57.5t-53.5 -22.5h-49v-110q0 -86 -105 -86q-56 0 -80 22.5t-24 63.5v110 h-330q-47 0 -74.5 27.5t-27.5 60.5zM1241 350h238v299h-4z" />
<glyph unicode="&#xbf;" horiz-adv-x="1176" d="M88 -14q0 93 42.5 163.5t91.5 112.5t133.5 103.5t103.5 89.5q10 16 32 70.5t48.5 79t87.5 24.5q41 0 70.5 -19.5t45 -52.5t15.5 -68q0 -82 -47 -141.5t-135.5 -128.5t-132.5 -118t-44 -115q0 -83 52.5 -131t144.5 -48q88 0 130 35.5t74 104.5t60.5 101t93.5 32 q56 0 94.5 -33t38.5 -92q0 -99 -67 -187.5t-178 -142t-234 -53.5q-216 0 -368 105t-152 309zM451 934q0 46 23 84.5t60.5 61t83.5 22.5q47 0 84.5 -22.5t60.5 -61t23 -84.5q0 -69 -48.5 -119.5t-119.5 -50.5q-70 0 -118.5 50.5t-48.5 119.5z" />
<glyph unicode="&#xc0;" horiz-adv-x="1366" d="M18 123q0 38 33 129l434 1161q22 56 61.5 79.5t102.5 23.5h80q65 0 110 -25t70 -98l406 -1141q33 -91 33 -129q0 -62 -46.5 -106t-111.5 -44q-117 0 -152 93l-86 249h-540l-88 -249q-16 -48 -52.5 -70.5t-97.5 -22.5q-69 0 -112.5 41t-43.5 109zM399 1837q0 40 27.5 77.5 t83.5 37.5q33 0 65 -19t72 -53l152 -117q32 -25 45.5 -48t13.5 -52q0 -49 -32 -74.5t-72 -25.5t-95 36l-184 127q-76 51 -76 111zM485 551h394l-191 598h-4z" />
<glyph unicode="&#xc1;" horiz-adv-x="1366" d="M18 123q0 38 33 129l434 1161q22 56 61.5 79.5t102.5 23.5h80q65 0 110 -25t70 -98l406 -1141q33 -91 33 -129q0 -62 -46.5 -106t-111.5 -44q-117 0 -152 93l-86 249h-540l-88 -249q-16 -48 -52.5 -70.5t-97.5 -22.5q-69 0 -112.5 41t-43.5 109zM485 551h394l-191 598h-4 zM510 1663q0 27 13 50t46 50l152 117q44 35 74.5 53.5t62.5 18.5q39 0 64 -19.5t36 -45.5t11 -50q0 -60 -76 -111l-184 -127q-55 -36 -95 -36q-38 0 -71 25.5t-33 74.5z" />
<glyph unicode="&#xc2;" horiz-adv-x="1366" d="M18 123q0 38 33 129l434 1161q22 56 61.5 79.5t102.5 23.5h80q65 0 110 -25t70 -98l406 -1141q33 -91 33 -129q0 -62 -46.5 -106t-111.5 -44q-117 0 -152 93l-86 249h-540l-88 -249q-16 -48 -52.5 -70.5t-97.5 -22.5q-69 0 -112.5 41t-43.5 109zM352 1669q0 26 46 77 t106 105q56 52 91 68t89 16t89 -16t91 -68q59 -53 105.5 -105t46.5 -77q0 -46 -29 -76t-63 -30q-30 0 -52 12t-57 47l-131 133l-131 -133q-34 -35 -55.5 -47t-53.5 -12q-33 0 -62.5 30.5t-29.5 75.5zM485 551h394l-191 598h-4z" />
<glyph unicode="&#xc3;" horiz-adv-x="1366" d="M18 123q0 38 33 129l434 1161q22 56 61.5 79.5t102.5 23.5h80q65 0 110 -25t70 -98l406 -1141q33 -91 33 -129q0 -62 -46.5 -106t-111.5 -44q-117 0 -152 93l-86 249h-540l-88 -249q-16 -48 -52.5 -70.5t-97.5 -22.5q-69 0 -112.5 41t-43.5 109zM319 1720q0 70 61 122 t132 52q51 0 147 -34q90 -37 125 -37q29 0 76 37q49 34 86 34q103 0 103 -92q0 -47 -34 -91t-85.5 -72.5t-98.5 -28.5q-54 0 -143 36.5t-108 36.5q-24 0 -44.5 -10.5t-42 -27.5t-40 -26t-35.5 -9q-38 0 -68.5 27.5t-30.5 82.5zM485 551h394l-191 598h-4z" />
<glyph unicode="&#xc4;" horiz-adv-x="1366" d="M18 123q0 38 33 129l434 1161q22 56 61.5 79.5t102.5 23.5h80q65 0 110 -25t70 -98l406 -1141q33 -91 33 -129q0 -62 -46.5 -106t-111.5 -44q-117 0 -152 93l-86 249h-540l-88 -249q-16 -48 -52.5 -70.5t-97.5 -22.5q-69 0 -112.5 41t-43.5 109zM326 1747q0 41 20 75 t54 54t75 20t75 -19.5t54.5 -53.5t20.5 -76q0 -43 -20.5 -77t-54 -54.5t-75.5 -20.5t-75.5 20.5t-53.5 55t-20 76.5zM485 551h394l-191 598h-4zM743 1747q0 61 45 105t105 44q41 0 75 -20t54 -54t20 -75q0 -42 -20 -76.5t-53.5 -55t-75.5 -20.5t-75.5 20.5t-54 54.5 t-20.5 77z" />
<glyph unicode="&#xc5;" horiz-adv-x="1366" d="M18 123q0 38 33 129l434 1161q22 56 61.5 79.5t102.5 23.5h80q65 0 110 -25t70 -98l406 -1141q33 -91 33 -129q0 -62 -46.5 -106t-111.5 -44q-117 0 -152 93l-86 249h-540l-88 -249q-16 -48 -52.5 -70.5t-97.5 -22.5q-69 0 -112.5 41t-43.5 109zM463 1769q0 60 30 112 t80 82t111 30t111 -30t80 -82t30 -112q0 -94 -64.5 -158.5t-156.5 -64.5t-156.5 65.5t-64.5 157.5zM485 551h394l-191 598h-4zM578 1769q0 -44 31 -76t75 -32q43 0 75 32t32 76t-31.5 76.5t-75.5 32.5q-45 -2 -75.5 -33t-30.5 -76z" />
<glyph unicode="&#xc6;" horiz-adv-x="1972" d="M4 111q0 56 25 118l397 1135q17 47 37.5 74t51 39t73.5 12h1130q82 0 126 -30t44 -105q0 -77 -44 -107t-126 -30h-530v-324h483q76 0 117 -28t41 -101q0 -74 -41.5 -102.5t-116.5 -28.5h-483v-361h547q81 0 125.5 -30.5t44.5 -104.5q0 -75 -44 -106t-126 -31h-686 q-64 0 -107 19t-66.5 64t-23.5 116v133h-457l-84 -252q-35 -107 -155 -107q-58 0 -105 36.5t-47 101.5zM471 567h381v662h-158z" />
<glyph unicode="&#xc7;" horiz-adv-x="1479" d="M109 745q0 161 45.5 300.5t138.5 248.5t227 169.5t309 60.5q138 0 250 -38t188.5 -98t117 -127.5t40.5 -125.5q0 -71 -38 -111.5t-113 -40.5q-63 0 -93.5 28t-80.5 98t-109 106t-162 36q-107 0 -194.5 -60t-139 -174t-51.5 -272q0 -104 22 -195t70.5 -162.5t124.5 -110.5 t181 -39q89 0 144.5 38t109.5 113t84 105t82 30q65 0 114 -35.5t49 -95.5q0 -105 -77.5 -204t-210 -161t-289.5 -63l-53 -80h14q88 0 140 -35t52 -108q0 -84 -73 -134t-174 -50q-85 0 -127.5 26t-42.5 58q0 21 13.5 38t35.5 17q12 0 51.5 -12.5t60.5 -12.5q34 0 53 19t19 49 q0 53 -51 53q-14 0 -20 -0.5t-15 -1.5t-16.5 -2.5t-14.5 -1.5q-47 0 -47 41q0 12 23 49l61 94q-199 18 -339.5 111t-214.5 260t-74 403z" />
<glyph unicode="&#xc8;" horiz-adv-x="1403" d="M164 199v1091q0 108 50.5 153.5t145.5 45.5h789q82 0 126 -30t44 -105q0 -77 -44 -107t-126 -30h-649v-324h569q76 0 117 -28t41 -101q0 -74 -41.5 -102.5t-116.5 -28.5h-569v-361h665q81 0 125.5 -30.5t44.5 -104.5q0 -75 -44 -106t-126 -31h-805q-63 0 -106 19 t-66.5 64t-23.5 116zM459 1837q0 39 27.5 77t82.5 38q33 0 66.5 -20t71.5 -52l151 -117q60 -49 60 -100q0 -49 -32.5 -74.5t-72.5 -25.5t-94 36l-184 127q-76 50 -76 111z" />
<glyph unicode="&#xc9;" horiz-adv-x="1403" d="M164 199v1091q0 108 50.5 153.5t145.5 45.5h789q82 0 126 -30t44 -105q0 -77 -44 -107t-126 -30h-649v-324h569q76 0 117 -28t41 -101q0 -74 -41.5 -102.5t-116.5 -28.5h-569v-361h665q81 0 125.5 -30.5t44.5 -104.5q0 -75 -44 -106t-126 -31h-805q-63 0 -106 19 t-66.5 64t-23.5 116zM569 1663q0 51 60 100l151 117q44 35 74.5 53.5t63.5 18.5q38 0 63 -19.5t36 -45.5t11 -50q0 -60 -76 -111l-184 -127q-54 -36 -94 -36t-72.5 26t-32.5 74z" />
<glyph unicode="&#xca;" horiz-adv-x="1403" d="M164 199v1091q0 108 50.5 153.5t145.5 45.5h789q82 0 126 -30t44 -105q0 -77 -44 -107t-126 -30h-649v-324h569q76 0 117 -28t41 -101q0 -74 -41.5 -102.5t-116.5 -28.5h-569v-361h665q81 0 125.5 -30.5t44.5 -104.5q0 -75 -44 -106t-126 -31h-805q-63 0 -106 19 t-66.5 64t-23.5 116zM412 1669q0 41 151 182q56 52 91.5 68t88.5 16q54 0 89.5 -16t91.5 -68q151 -141 151 -182q0 -46 -29 -76t-63 -30q-30 0 -52 12t-57 47l-131 133l-131 -133q-34 -35 -55.5 -47t-52.5 -12q-32 0 -62 30t-30 76z" />
<glyph unicode="&#xcb;" horiz-adv-x="1403" d="M164 199v1091q0 108 50.5 153.5t145.5 45.5h789q82 0 126 -30t44 -105q0 -77 -44 -107t-126 -30h-649v-324h569q76 0 117 -28t41 -101q0 -74 -41.5 -102.5t-116.5 -28.5h-569v-361h665q81 0 125.5 -30.5t44.5 -104.5q0 -75 -44 -106t-126 -31h-805q-63 0 -106 19 t-66.5 64t-23.5 116zM385 1747q0 61 45 105t105 44q40 0 74 -20t54.5 -54t20.5 -75q0 -42 -20.5 -76.5t-54 -55t-74.5 -20.5q-42 0 -75.5 20.5t-54 54.5t-20.5 77zM803 1747q0 41 20 75t54 54t75 20t75 -19.5t54.5 -53.5t20.5 -76q0 -43 -20.5 -77t-54 -54.5t-75.5 -20.5 t-75.5 20.5t-53.5 55t-20 76.5z" />
<glyph unicode="&#xcc;" horiz-adv-x="647" d="M39 1837q0 40 27.5 77.5t83.5 37.5q33 0 65 -19t72 -53l151 -117q60 -49 60 -100q0 -49 -32.5 -74.5t-72.5 -25.5t-94 36l-184 127q-76 51 -76 111zM156 143v1205q0 75 46.5 121.5t121.5 46.5q51 0 88.5 -21t58.5 -58.5t21 -88.5v-1205q0 -77 -45.5 -123.5t-122.5 -46.5 q-76 0 -122 47t-46 123z" />
<glyph unicode="&#xcd;" horiz-adv-x="647" d="M150 1663q0 27 13 50t46 50l151 117q44 35 74.5 53.5t63.5 18.5q56 0 83 -38t27 -77q0 -61 -76 -111l-184 -127q-54 -36 -94 -36q-38 0 -71 25.5t-33 74.5zM156 143v1205q0 75 46.5 121.5t121.5 46.5q51 0 88.5 -21t58.5 -58.5t21 -88.5v-1205q0 -77 -45.5 -123.5 t-122.5 -46.5q-76 0 -122 47t-46 123z" />
<glyph unicode="&#xce;" horiz-adv-x="647" d="M-8 1669q0 41 151 182q56 52 91.5 68t89.5 16t89 -16t91 -68q151 -141 151 -182q0 -46 -29 -76t-63 -30q-30 0 -50.5 11t-57.5 48l-131 133l-131 -133q-35 -35 -57 -47t-52 -12q-32 0 -62 30t-30 76zM156 143v1205q0 75 46.5 121.5t121.5 46.5q51 0 88.5 -21t58.5 -58.5 t21 -88.5v-1205q0 -77 -45.5 -123.5t-122.5 -46.5q-76 0 -122 47t-46 123z" />
<glyph unicode="&#xcf;" horiz-adv-x="647" d="M-35 1747q0 61 45 105t105 44q41 0 75 -20t54 -54t20 -75q0 -42 -20 -76.5t-53.5 -55t-75.5 -20.5t-75.5 20.5t-54 54.5t-20.5 77zM156 143v1205q0 75 46.5 121.5t121.5 46.5q51 0 88.5 -21t58.5 -58.5t21 -88.5v-1205q0 -77 -45.5 -123.5t-122.5 -46.5q-76 0 -122 47 t-46 123zM383 1747q0 41 20.5 75t54.5 54t74 20q41 0 75 -19.5t54.5 -53.5t20.5 -76q0 -43 -20.5 -77t-54 -54.5t-75.5 -20.5q-41 0 -74.5 20.5t-54 55t-20.5 76.5z" />
<glyph unicode="&#xd0;" horiz-adv-x="1554" d="M-12 760q0 92 96 92h72v438q0 109 51 154t145 45h410q146 0 271 -36t222.5 -121.5t153 -231t55.5 -355.5q0 -178 -47 -316t-138.5 -233.5t-223.5 -145.5t-299 -50h-404q-94 0 -145 45t-51 154v467h-72q-96 0 -96 94zM492 272h282q126 0 205.5 66.5t114 172.5t34.5 234 q0 148 -38 254t-118.5 162t-199.5 56h-280v-365h268q96 0 96 -92q0 -94 -96 -94h-268v-394z" />
<glyph unicode="&#xd1;" horiz-adv-x="1593" d="M150 137v1180q0 70 22.5 114t68 64.5t119.5 20.5q53 0 97.5 -22t70.5 -67l588 -958h4v885q0 80 42.5 121t119.5 41q78 0 120 -40.5t42 -121.5v-1170q0 -211 -199 -211q-76 0 -112.5 18.5t-71.5 71.5l-584 932h-4v-858q0 -82 -43 -123t-119 -41q-75 0 -118 41t-43 123z M432 1720q0 70 61 122t132 52q51 0 147 -34q88 -37 125 -37q27 0 76 37q47 34 86 34q102 0 102 -92q0 -47 -34 -91.5t-85 -72.5t-98 -28q-54 0 -143 36.5t-109 36.5q-23 0 -41.5 -9t-42.5 -27.5t-41.5 -27.5t-36.5 -9q-38 0 -68 27.5t-30 82.5z" />
<glyph unicode="&#xd2;" horiz-adv-x="1671" d="M90 764q0 219 86.5 391.5t256 270.5t403.5 98q233 0 402.5 -97.5t256 -270.5t86.5 -392q0 -159 -46.5 -303.5t-140 -256t-234.5 -175.5t-324 -64q-256 0 -423 103t-245 283.5t-78 412.5zM426 764q0 -238 95 -382t315 -144q146 0 237.5 69t131.5 186.5t40 270.5 q0 111 -25.5 198t-77 153t-127.5 101t-179 35q-133 0 -225.5 -61t-138.5 -171.5t-46 -254.5zM551 1837q0 40 27.5 77.5t83.5 37.5q33 0 65 -19t72 -53l151 -117q60 -49 60 -100q0 -49 -32.5 -74.5t-72.5 -25.5t-94 36l-184 127q-76 51 -76 111z" />
<glyph unicode="&#xd3;" horiz-adv-x="1671" d="M90 764q0 219 86.5 391.5t256 270.5t403.5 98q233 0 402.5 -97.5t256 -270.5t86.5 -392q0 -159 -46.5 -303.5t-140 -256t-234.5 -175.5t-324 -64q-256 0 -423 103t-245 283.5t-78 412.5zM426 764q0 -238 95 -382t315 -144q146 0 237.5 69t131.5 186.5t40 270.5 q0 111 -25.5 198t-77 153t-127.5 101t-179 35q-133 0 -225.5 -61t-138.5 -171.5t-46 -254.5zM662 1663q0 27 13 50t46 50l151 117q44 35 74.5 53.5t63.5 18.5q56 0 83 -38t27 -77q0 -61 -76 -111l-184 -127q-54 -36 -94 -36q-38 0 -71 25.5t-33 74.5z" />
<glyph unicode="&#xd4;" horiz-adv-x="1671" d="M90 764q0 219 86.5 391.5t256 270.5t403.5 98q233 0 402.5 -97.5t256 -270.5t86.5 -392q0 -159 -46.5 -303.5t-140 -256t-234.5 -175.5t-324 -64q-256 0 -423 103t-245 283.5t-78 412.5zM426 764q0 -238 95 -382t315 -144q146 0 237.5 69t131.5 186.5t40 270.5 q0 111 -25.5 198t-77 153t-127.5 101t-179 35q-133 0 -225.5 -61t-138.5 -171.5t-46 -254.5zM504 1669q0 41 151 182q56 52 91.5 68t89.5 16t89 -16t91 -68q151 -141 151 -182q0 -46 -29 -76t-63 -30q-30 0 -50.5 11t-57.5 48l-131 133l-131 -133q-35 -35 -57 -47t-52 -12 q-32 0 -62 30t-30 76z" />
<glyph unicode="&#xd5;" horiz-adv-x="1671" d="M90 764q0 219 86.5 391.5t256 270.5t403.5 98q233 0 402.5 -97.5t256 -270.5t86.5 -392q0 -159 -46.5 -303.5t-140 -256t-234.5 -175.5t-324 -64q-256 0 -423 103t-245 283.5t-78 412.5zM426 764q0 -238 95 -382t315 -144q146 0 237.5 69t131.5 186.5t40 270.5 q0 111 -25.5 198t-77 153t-127.5 101t-179 35q-133 0 -225.5 -61t-138.5 -171.5t-46 -254.5zM471 1720q0 70 60.5 122t132.5 52q51 0 147 -34q88 -37 125 -37q27 0 76 37q47 34 86 34q102 0 102 -92q0 -47 -34 -91.5t-85 -72.5t-98 -28q-54 0 -143 36.5t-109 36.5 q-23 0 -41.5 -9t-42.5 -27.5t-41.5 -27.5t-36.5 -9q-38 0 -68 27.5t-30 82.5z" />
<glyph unicode="&#xd6;" horiz-adv-x="1671" d="M90 764q0 219 86.5 391.5t256 270.5t403.5 98q233 0 402.5 -97.5t256 -270.5t86.5 -392q0 -159 -46.5 -303.5t-140 -256t-234.5 -175.5t-324 -64q-256 0 -423 103t-245 283.5t-78 412.5zM426 764q0 -238 95 -382t315 -144q146 0 237.5 69t131.5 186.5t40 270.5 q0 111 -25.5 198t-77 153t-127.5 101t-179 35q-133 0 -225.5 -61t-138.5 -171.5t-46 -254.5zM477 1747q0 61 45 105t105 44q41 0 75 -20t54 -54t20 -75q0 -42 -20 -76.5t-53.5 -55t-75.5 -20.5t-75.5 20.5t-54 54.5t-20.5 77zM895 1747q0 41 20.5 75t54.5 54t74 20 q41 0 75 -19.5t54.5 -53.5t20.5 -76q0 -43 -20.5 -77t-54 -54.5t-75.5 -20.5q-41 0 -74.5 20.5t-54 55t-20.5 76.5z" />
<glyph unicode="&#xd7;" horiz-adv-x="1229" d="M121 217q0 43 39 82l280 287l-280 284q-39 39 -39 84q0 57 38 93t95 36q39 0 78 -39l282 -282l283 282q39 39 78 39q57 0 95 -36t38 -93q0 -45 -39 -84l-281 -284l281 -287q39 -39 39 -82q0 -37 -17.5 -67t-48 -47t-67.5 -17t-78 41l-283 283l-282 -283q-41 -41 -78 -41 q-56 0 -94.5 36.5t-38.5 94.5z" />
<glyph unicode="&#xd8;" horiz-adv-x="1671" d="M90 764q0 219 86.5 391.5t256 270.5t403.5 98q266 0 450 -127l88 98q59 68 107 68q38 0 65 -21.5t27 -68.5q0 -26 -12.5 -45t-44.5 -58l-93 -104q77 -95 117.5 -223.5t40.5 -278.5q0 -159 -46.5 -303.5t-140 -256t-234.5 -175.5t-324 -64q-282 0 -457 127l-107 -119 q-41 -45 -88 -45q-40 0 -64 31t-24 61t14 52t50 65l82 90q-76 103 -114 239t-38 298zM426 764q0 -166 43 -283l616 690q-94 80 -249 80q-133 0 -225.5 -61t-138.5 -171.5t-46 -254.5zM580 319q97 -81 256 -81q146 0 237.5 69t131.5 186.5t40 270.5q0 145 -47 250z" />
<glyph unicode="&#xd9;" horiz-adv-x="1593" d="M156 559v789q0 75 46.5 121.5t121.5 46.5q51 0 88.5 -21t58.5 -58.5t21 -88.5v-816q0 -100 35.5 -165.5t103.5 -97t166 -31.5q147 0 226 73t79 221v816q0 75 46.5 121.5t121.5 46.5q51 0 88.5 -21t58.5 -58.5t21 -88.5v-789q0 -299 -168.5 -446.5t-472.5 -147.5 t-472.5 148t-168.5 446zM512 1837q0 40 27.5 77.5t83.5 37.5q33 0 65 -19t72 -53l151 -117q60 -49 60 -100q0 -49 -32.5 -74.5t-72.5 -25.5t-94 36l-184 127q-76 51 -76 111z" />
<glyph unicode="&#xda;" horiz-adv-x="1593" d="M156 559v789q0 75 46.5 121.5t121.5 46.5q51 0 88.5 -21t58.5 -58.5t21 -88.5v-816q0 -100 35.5 -165.5t103.5 -97t166 -31.5q147 0 226 73t79 221v816q0 75 46.5 121.5t121.5 46.5q51 0 88.5 -21t58.5 -58.5t21 -88.5v-789q0 -299 -168.5 -446.5t-472.5 -147.5 t-472.5 148t-168.5 446zM623 1663q0 27 13 50t46 50l152 117q40 34 72 53t65 19q56 0 83 -38t27 -77q0 -60 -75 -111l-185 -127q-54 -36 -94 -36q-38 0 -71 25.5t-33 74.5z" />
<glyph unicode="&#xdb;" horiz-adv-x="1593" d="M156 559v789q0 75 46.5 121.5t121.5 46.5q51 0 88.5 -21t58.5 -58.5t21 -88.5v-816q0 -100 35.5 -165.5t103.5 -97t166 -31.5q147 0 226 73t79 221v816q0 75 46.5 121.5t121.5 46.5q51 0 88.5 -21t58.5 -58.5t21 -88.5v-789q0 -299 -168.5 -446.5t-472.5 -147.5 t-472.5 148t-168.5 446zM465 1669q0 41 151 182q56 52 91.5 68t89.5 16t89 -16t91 -68q151 -141 151 -182q0 -46 -29 -76t-63 -30q-30 0 -50.5 11t-57.5 48l-131 133l-131 -133q-34 -35 -55.5 -47t-53.5 -12t-62 30t-30 76z" />
<glyph unicode="&#xdc;" horiz-adv-x="1593" d="M156 559v789q0 75 46.5 121.5t121.5 46.5q51 0 88.5 -21t58.5 -58.5t21 -88.5v-816q0 -100 35.5 -165.5t103.5 -97t166 -31.5q147 0 226 73t79 221v816q0 75 46.5 121.5t121.5 46.5q51 0 88.5 -21t58.5 -58.5t21 -88.5v-789q0 -299 -168.5 -446.5t-472.5 -147.5 t-472.5 148t-168.5 446zM438 1747q0 61 45 105t105 44q41 0 75 -20t54 -54t20 -75q0 -42 -20 -76.5t-53.5 -55t-75.5 -20.5t-75.5 20.5t-54 54.5t-20.5 77zM856 1747q0 61 45 105t105 44q40 0 74 -20t54.5 -54t20.5 -75q0 -42 -20.5 -76.5t-54 -55t-74.5 -20.5 q-42 0 -75.5 20.5t-54 54.5t-20.5 77z" />
<glyph unicode="&#xdd;" horiz-adv-x="1253" d="M18 1362q0 78 54.5 116t115.5 38q58 0 91.5 -23t60.5 -76l293 -545l291 545q31 57 62 78t83 21q58 0 112 -38t54 -116q0 -46 -29 -90l-411 -690v-439q0 -77 -45.5 -123.5t-122.5 -46.5q-76 0 -122 47t-46 123v439l-412 690q-29 47 -29 90zM453 1663q0 27 13 50t46 50 l152 117q44 35 74.5 53.5t62.5 18.5q56 0 83 -38t27 -77q0 -60 -75 -111l-185 -127q-54 -36 -94 -36q-38 0 -71 25.5t-33 74.5z" />
<glyph unicode="&#xde;" horiz-adv-x="1442" d="M156 143v1205q0 75 46.5 121.5t121.5 46.5q51 0 88.5 -21t58.5 -58.5t21 -88.5v-103h374q144 0 260 -50t183 -156.5t67 -264.5q0 -103 -33 -188t-99.5 -150t-164 -100t-215.5 -35h-372v-158q0 -77 -45.5 -123.5t-122.5 -46.5q-76 0 -122 47t-46 123zM492 563h313 q67 0 121 26t84 74.5t30 110.5q0 211 -270 211h-278v-422z" />
<glyph unicode="&#xdf;" d="M119 125v926q0 229 129 350t375 121q116 0 224.5 -43.5t176.5 -132t68 -216.5q0 -100 -45 -168.5t-136 -121.5q127 -35 192.5 -136.5t65.5 -242.5q0 -137 -58 -249t-164.5 -175.5t-239.5 -63.5q-69 0 -116.5 31t-47.5 90q0 38 12.5 62.5t32.5 36.5t39 16t73 12 q70 10 114 67t44 171q0 122 -47 176t-164 74q-104 18 -104 104q0 48 22.5 74t69.5 35q89 20 123.5 50t34.5 128q0 94 -49 146t-138 52q-102 0 -145 -68t-43 -167v-938q0 -74 -40 -113t-110 -39q-69 0 -109 39t-40 113z" />
<glyph unicode="&#xe0;" d="M84 281q0 119 54 191.5t146 107t218 49.5l182 20q64 7 96.5 30t32.5 83q0 61 -53.5 92t-134.5 31q-97 0 -137 -26.5t-101 -83t-108 -56.5q-55 0 -91 35t-36 82q0 100 129.5 186t345.5 86q109 0 198 -18.5t152.5 -55t99 -95t35.5 -140.5v-508q0 -57 5.5 -84.5t15.5 -63 t10 -55.5q0 -33 -18 -58.5t-49.5 -41t-67.5 -15.5q-168 0 -177 177q-83 -94 -183.5 -135.5t-225.5 -41.5q-86 0 -164 38t-126 108.5t-48 161.5zM342 1460q0 40 27.5 77.5t83.5 37.5q33 0 65 -19t72 -53l151 -117q60 -48 60 -100q0 -48 -32.5 -74t-72.5 -26t-94 37l-184 127 q-76 50 -76 110zM383 295q0 -52 45.5 -87.5t120.5 -35.5q117 0 190.5 65.5t73.5 153.5v117q-32 -30 -129 -47l-109 -17q-98 -14 -145 -48t-47 -101z" />
<glyph unicode="&#xe1;" d="M84 281q0 119 54 191.5t146 107t218 49.5l182 20q64 7 96.5 30t32.5 83q0 61 -53.5 92t-134.5 31q-97 0 -137 -26.5t-101 -83t-108 -56.5q-55 0 -91 35t-36 82q0 100 129.5 186t345.5 86q109 0 198 -18.5t152.5 -55t99 -95t35.5 -140.5v-508q0 -57 5.5 -84.5t15.5 -63 t10 -55.5q0 -33 -18 -58.5t-49.5 -41t-67.5 -15.5q-168 0 -177 177q-83 -94 -183.5 -135.5t-225.5 -41.5q-86 0 -164 38t-126 108.5t-48 161.5zM383 295q0 -52 45.5 -87.5t120.5 -35.5q117 0 190.5 65.5t73.5 153.5v117q-32 -30 -129 -47l-109 -17q-98 -14 -145 -48 t-47 -101zM453 1286q0 28 13 50.5t46 49.5l152 117q44 35 74.5 53.5t62.5 18.5q56 0 83 -38t27 -77q0 -61 -75 -110l-185 -127q-54 -37 -94 -37q-38 0 -71 26.5t-33 73.5z" />
<glyph unicode="&#xe2;" d="M84 281q0 119 54 191.5t146 107t218 49.5l182 20q64 7 96.5 30t32.5 83q0 61 -53.5 92t-134.5 31q-97 0 -137 -26.5t-101 -83t-108 -56.5q-55 0 -91 35t-36 82q0 100 129.5 186t345.5 86q109 0 198 -18.5t152.5 -55t99 -95t35.5 -140.5v-508q0 -57 5.5 -84.5t15.5 -63 t10 -55.5q0 -33 -18 -58.5t-49.5 -41t-67.5 -15.5q-168 0 -177 177q-83 -94 -183.5 -135.5t-225.5 -41.5q-86 0 -164 38t-126 108.5t-48 161.5zM295 1292q0 40 151 183q56 52 93 68t88 16t87.5 -16t92.5 -68q151 -143 151 -183q0 -46 -29 -76t-63 -30q-30 0 -50.5 11 t-57.5 48l-131 133l-131 -133q-34 -35 -55.5 -47t-53.5 -12t-62 30t-30 76zM383 295q0 -52 45.5 -87.5t120.5 -35.5q117 0 190.5 65.5t73.5 153.5v117q-32 -30 -129 -47l-109 -17q-98 -14 -145 -48t-47 -101z" />
<glyph unicode="&#xe3;" d="M84 281q0 119 54 191.5t146 107t218 49.5l182 20q64 7 96.5 30t32.5 83q0 61 -53.5 92t-134.5 31q-97 0 -137 -26.5t-101 -83t-108 -56.5q-55 0 -91 35t-36 82q0 100 129.5 186t345.5 86q109 0 198 -18.5t152.5 -55t99 -95t35.5 -140.5v-508q0 -57 5.5 -84.5t15.5 -63 t10 -55.5q0 -33 -18 -58.5t-49.5 -41t-67.5 -15.5q-168 0 -177 177q-83 -94 -183.5 -135.5t-225.5 -41.5q-86 0 -164 38t-126 108.5t-48 161.5zM262 1343q0 70 61 122.5t132 52.5q49 0 147 -35q88 -37 125 -37q27 0 76 37q24 17 42.5 26t43.5 9q102 0 102 -93 q0 -47 -34 -91.5t-85 -72.5t-98 -28q-42 0 -78.5 12.5t-96 37t-77.5 24.5q-23 0 -41.5 -9t-42.5 -27.5t-41 -28t-37 -9.5q-24 0 -46.5 11.5t-37 36t-14.5 62.5zM383 295q0 -52 45.5 -87.5t120.5 -35.5q117 0 190.5 65.5t73.5 153.5v117q-32 -30 -129 -47l-109 -17 q-98 -14 -145 -48t-47 -101z" />
<glyph unicode="&#xe4;" d="M84 281q0 119 54 191.5t146 107t218 49.5l182 20q64 7 96.5 30t32.5 83q0 61 -53.5 92t-134.5 31q-97 0 -137 -26.5t-101 -83t-108 -56.5q-55 0 -91 35t-36 82q0 100 129.5 186t345.5 86q109 0 198 -18.5t152.5 -55t99 -95t35.5 -140.5v-508q0 -57 5.5 -84.5t15.5 -63 t10 -55.5q0 -33 -18 -58.5t-49.5 -41t-67.5 -15.5q-168 0 -177 177q-83 -94 -183.5 -135.5t-225.5 -41.5q-86 0 -164 38t-126 108.5t-48 161.5zM268 1370q0 62 45 106t105 44q42 0 76 -20.5t53.5 -54.5t19.5 -75q0 -42 -20 -76.5t-54 -54.5t-75 -20q-60 0 -105 44t-45 107z M383 295q0 -52 45.5 -87.5t120.5 -35.5q117 0 190.5 65.5t73.5 153.5v117q-32 -30 -129 -47l-109 -17q-98 -14 -145 -48t-47 -101zM686 1370q0 62 45 106t105 44q42 0 76 -20.5t53.5 -54.5t19.5 -75q0 -42 -20 -76.5t-54 -54.5t-75 -20q-60 0 -105 44t-45 107z" />
<glyph unicode="&#xe5;" d="M84 281q0 119 54 191.5t146 107t218 49.5l182 20q64 7 96.5 30t32.5 83q0 61 -53.5 92t-134.5 31q-97 0 -137 -26.5t-101 -83t-108 -56.5q-55 0 -91 35t-36 82q0 100 129.5 186t345.5 86q109 0 198 -18.5t152.5 -55t99 -95t35.5 -140.5v-508q0 -57 5.5 -84.5t15.5 -63 t10 -55.5q0 -33 -18 -58.5t-49.5 -41t-67.5 -15.5q-168 0 -177 177q-83 -94 -183.5 -135.5t-225.5 -41.5q-86 0 -164 38t-126 108.5t-48 161.5zM383 295q0 -52 45.5 -87.5t120.5 -35.5q117 0 190.5 65.5t73.5 153.5v117q-32 -30 -129 -47l-109 -17q-98 -14 -145 -48 t-47 -101zM406 1393q0 60 30 111.5t80.5 81.5t110.5 30q92 0 156.5 -65.5t64.5 -157.5q0 -93 -64.5 -158.5t-156.5 -65.5q-60 0 -111 30t-80.5 81.5t-29.5 112.5zM520 1393q0 -45 31 -77t76 -32q44 0 75 32t31 77t-30.5 76.5t-75.5 31.5q-46 -2 -76.5 -33t-30.5 -75z" />
<glyph unicode="&#xe6;" horiz-adv-x="1933" d="M84 281q0 119 54 191.5t146 107t218 49.5l182 20q64 7 96.5 30t32.5 83q0 61 -53.5 92t-134.5 31q-97 0 -137 -26.5t-101 -83t-108 -56.5q-55 0 -91 35t-36 82q0 100 129.5 186t345.5 86q114 0 202.5 -28t165.5 -103q54 51 143 91t205 40t213.5 -41.5t165 -111.5 t103 -158t35.5 -183q0 -77 -27.5 -104t-103.5 -27h-658q0 -119 76.5 -196.5t181.5 -77.5q98 0 138.5 24t100 74.5t107.5 50.5q52 0 87.5 -37.5t35.5 -80.5q0 -86 -75 -146t-185 -90.5t-209 -30.5q-90 0 -160.5 18t-130.5 61.5t-118 119.5q-64 -74 -133 -118t-145 -62.5 t-167 -18.5q-171 0 -281 84t-110 224zM383 295q0 -52 45.5 -87.5t120.5 -35.5q117 0 190.5 65.5t73.5 153.5v117q-32 -30 -129 -47l-109 -17q-98 -14 -145 -48t-47 -101zM1071 657h506q-12 103 -79.5 171.5t-154.5 68.5q-116 0 -180.5 -61.5t-91.5 -178.5z" />
<glyph unicode="&#xe7;" horiz-adv-x="1100" d="M61 520q0 176 64.5 308t192 206t305.5 74q89 0 171 -23.5t140 -63.5t91.5 -92t33.5 -104q0 -62 -40 -96.5t-99 -34.5q-47 0 -68.5 19.5t-53 65.5t-71.5 69.5t-113 23.5q-47 0 -90 -17t-80.5 -58t-60.5 -110t-23 -167q0 -144 66.5 -227.5t185.5 -83.5q70 0 109 26 t74.5 75.5t61.5 71t77 21.5q54 0 89.5 -33.5t35.5 -82.5q0 -63 -44 -131t-131.5 -117t-209.5 -59l-62 -95h15q87 0 139.5 -35t52.5 -108q0 -83 -73 -133.5t-175 -50.5q-84 0 -127 26t-43 58q0 21 14.5 38t35.5 17q12 0 50.5 -12.5t61.5 -12.5q34 0 53 20t19 48q0 53 -51 53 q-14 0 -20 -0.5t-15 -1.5t-16.5 -2.5t-14.5 -1.5q-47 0 -47 41q0 16 23 49l63 100q-244 13 -370 160t-126 383z" />
<glyph unicode="&#xe8;" horiz-adv-x="1253" d="M74 522q0 175 67.5 307.5t195.5 205.5t302 73q164 0 287.5 -70t188.5 -184.5t65 -239.5q0 -77 -27.5 -104t-103.5 -27h-676q0 -120 74 -197t202 -77q98 0 138.5 24t100 74.5t107.5 50.5q52 0 87.5 -37.5t35.5 -80.5q0 -86 -75 -146t-185 -90.5t-209 -30.5 q-198 0 -327 78.5t-188.5 203t-59.5 267.5zM342 1460q0 40 27.5 77.5t83.5 37.5q33 0 65 -19t72 -53l151 -117q60 -48 60 -100q0 -48 -32.5 -74t-72.5 -26t-94 37l-184 127q-76 50 -76 110zM373 657h524q-8 70 -43 124.5t-89 85t-120 30.5q-108 0 -177 -62.5t-95 -177.5z " />
<glyph unicode="&#xe9;" horiz-adv-x="1253" d="M74 522q0 175 67.5 307.5t195.5 205.5t302 73q164 0 287.5 -70t188.5 -184.5t65 -239.5q0 -77 -27.5 -104t-103.5 -27h-676q0 -120 74 -197t202 -77q98 0 138.5 24t100 74.5t107.5 50.5q52 0 87.5 -37.5t35.5 -80.5q0 -86 -75 -146t-185 -90.5t-209 -30.5 q-198 0 -327 78.5t-188.5 203t-59.5 267.5zM373 657h524q-8 70 -43 124.5t-89 85t-120 30.5q-108 0 -177 -62.5t-95 -177.5zM453 1286q0 28 13 50.5t46 49.5l152 117q44 35 74.5 53.5t62.5 18.5q56 0 83 -38t27 -77q0 -61 -75 -110l-185 -127q-54 -37 -94 -37 q-38 0 -71 26.5t-33 73.5z" />
<glyph unicode="&#xea;" horiz-adv-x="1253" d="M74 522q0 175 67.5 307.5t195.5 205.5t302 73q164 0 287.5 -70t188.5 -184.5t65 -239.5q0 -77 -27.5 -104t-103.5 -27h-676q0 -120 74 -197t202 -77q98 0 138.5 24t100 74.5t107.5 50.5q52 0 87.5 -37.5t35.5 -80.5q0 -86 -75 -146t-185 -90.5t-209 -30.5 q-198 0 -327 78.5t-188.5 203t-59.5 267.5zM295 1292q0 40 151 183q56 52 93 68t88 16t87.5 -16t92.5 -68q151 -143 151 -183q0 -46 -29 -76t-63 -30q-30 0 -50.5 11t-57.5 48l-131 133l-131 -133q-34 -35 -55.5 -47t-53.5 -12t-62 30t-30 76zM373 657h524q-8 70 -43 124.5 t-89 85t-120 30.5q-108 0 -177 -62.5t-95 -177.5z" />
<glyph unicode="&#xeb;" horiz-adv-x="1253" d="M74 522q0 175 67.5 307.5t195.5 205.5t302 73q164 0 287.5 -70t188.5 -184.5t65 -239.5q0 -77 -27.5 -104t-103.5 -27h-676q0 -120 74 -197t202 -77q98 0 138.5 24t100 74.5t107.5 50.5q52 0 87.5 -37.5t35.5 -80.5q0 -86 -75 -146t-185 -90.5t-209 -30.5 q-198 0 -327 78.5t-188.5 203t-59.5 267.5zM268 1370q0 62 45 106t105 44q42 0 76 -20.5t53.5 -54.5t19.5 -75q0 -42 -20 -76.5t-54 -54.5t-75 -20q-60 0 -105 44t-45 107zM373 657h524q-8 70 -43 124.5t-89 85t-120 30.5q-108 0 -177 -62.5t-95 -177.5zM686 1370 q0 62 45 106t105 44q42 0 76 -20.5t53.5 -54.5t19.5 -75q0 -42 -20 -76.5t-54 -54.5t-75 -20q-60 0 -105 44t-45 107z" />
<glyph unicode="&#xec;" horiz-adv-x="569" d="M0 1460q0 40 27.5 77.5t83.5 37.5q33 0 65 -19t72 -53l151 -117q60 -48 60 -100q0 -48 -32.5 -74t-72.5 -26t-94 37l-184 127q-76 50 -76 110zM135 125v833q0 150 150 150q81 0 115 -40.5t34 -109.5v-833q0 -152 -149 -152q-150 0 -150 152z" />
<glyph unicode="&#xed;" horiz-adv-x="569" d="M111 1286q0 28 13 50.5t46 49.5l152 117q40 34 72 53t65 19q56 0 83 -38t27 -77q0 -61 -75 -110l-185 -127q-54 -37 -94 -37q-38 0 -71 26.5t-33 73.5zM135 125v833q0 150 150 150q81 0 115 -40.5t34 -109.5v-833q0 -152 -149 -152q-150 0 -150 152z" />
<glyph unicode="&#xee;" horiz-adv-x="569" d="M-47 1292q0 40 151 183q56 52 93 68t88 16t87.5 -16t92.5 -68q151 -143 151 -183q0 -46 -29 -76t-63 -30q-30 0 -50.5 11t-57.5 48l-131 133l-131 -133q-34 -35 -55.5 -47t-53.5 -12t-62 30t-30 76zM135 125v833q0 150 150 150q81 0 115 -40.5t34 -109.5v-833 q0 -152 -149 -152q-150 0 -150 152z" />
<glyph unicode="&#xef;" horiz-adv-x="569" d="M-74 1370q0 62 45 106t105 44q42 0 76 -20.5t53.5 -54.5t19.5 -75q0 -42 -20 -76.5t-54 -54.5t-75 -20q-60 0 -105 44t-45 107zM135 125v833q0 150 150 150q81 0 115 -40.5t34 -109.5v-833q0 -152 -149 -152q-150 0 -150 152zM344 1370q0 62 45 106t105 44q41 0 75 -20.5 t54 -54.5t20 -75q0 -42 -20.5 -77t-54.5 -54.5t-74 -19.5q-60 0 -105 44t-45 107z" />
<glyph unicode="&#xf0;" horiz-adv-x="1253" d="M74 543q0 160 65 288.5t188 202.5t289 74q136 0 197 -64l4 5q-51 131 -153 219l-211 -94q-30 -13 -54 -13q-27 0 -45 19t-18 45q0 25 14 41t45 30l148 68q-36 20 -91 35t-72.5 23.5t-17.5 37.5q0 64 97 64q161 0 291 -68l170 76q29 12 53 12q28 0 45.5 -17t17.5 -46 q0 -27 -15.5 -43.5t-43.5 -28.5l-92 -41q146 -128 220.5 -335.5t74.5 -440.5q0 -284 -133.5 -451.5t-419.5 -167.5q-145 0 -253 45t-174 124t-96 181t-30 220zM373 543q0 -97 27.5 -175t85 -124.5t141.5 -46.5q127 0 190.5 98t63.5 248q0 100 -27.5 177t-85 121t-141.5 44 q-125 0 -189.5 -93.5t-64.5 -248.5z" />
<glyph unicode="&#xf1;" d="M119 125v833q0 150 135 150t135 -150v-40h4q69 92 155 141t208 49q75 0 140.5 -20t119 -65t85.5 -122.5t32 -189.5v-586q0 -152 -150 -152q-149 0 -149 152v526q0 62 -20.5 109t-62.5 73.5t-106 26.5q-86 0 -156.5 -65.5t-70.5 -171.5v-498q0 -152 -150 -152 q-149 0 -149 152zM262 1343q0 70 61 122.5t132 52.5q49 0 147 -35q88 -37 125 -37q27 0 76 37q24 17 42.5 26t43.5 9q102 0 102 -93q0 -47 -34 -91.5t-85 -72.5t-98 -28q-42 0 -78.5 12.5t-96 37t-77.5 24.5q-23 0 -41.5 -9t-42.5 -27.5t-41 -28t-37 -9.5q-24 0 -46.5 11.5 t-37 36t-14.5 62.5z" />
<glyph unicode="&#xf2;" horiz-adv-x="1253" d="M74 543q0 161 64 289.5t189 202t300 73.5t299.5 -73.5t189 -201.5t64.5 -290q0 -118 -30 -220.5t-95.5 -181t-173 -123.5t-254.5 -45q-145 0 -253 45t-174 124t-96 181t-30 220zM342 1460q0 40 27.5 77.5t83.5 37.5q33 0 65 -19t72 -53l151 -117q60 -48 60 -100 q0 -48 -32.5 -74t-72.5 -26t-94 37l-184 127q-76 50 -76 110zM373 543q0 -97 27.5 -175t85 -124.5t141.5 -46.5q127 0 190.5 98t63.5 248q0 100 -27.5 177t-85 121t-141.5 44q-125 0 -189.5 -93.5t-64.5 -248.5z" />
<glyph unicode="&#xf3;" horiz-adv-x="1253" d="M74 543q0 161 64 289.5t189 202t300 73.5t299.5 -73.5t189 -201.5t64.5 -290q0 -118 -30 -220.5t-95.5 -181t-173 -123.5t-254.5 -45q-145 0 -253 45t-174 124t-96 181t-30 220zM373 543q0 -97 27.5 -175t85 -124.5t141.5 -46.5q127 0 190.5 98t63.5 248q0 100 -27.5 177 t-85 121t-141.5 44q-125 0 -189.5 -93.5t-64.5 -248.5zM453 1286q0 28 13 50.5t46 49.5l152 117q44 35 74.5 53.5t62.5 18.5q56 0 83 -38t27 -77q0 -61 -75 -110l-185 -127q-54 -37 -94 -37q-38 0 -71 26.5t-33 73.5z" />
<glyph unicode="&#xf4;" horiz-adv-x="1253" d="M74 543q0 161 64 289.5t189 202t300 73.5t299.5 -73.5t189 -201.5t64.5 -290q0 -118 -30 -220.5t-95.5 -181t-173 -123.5t-254.5 -45q-145 0 -253 45t-174 124t-96 181t-30 220zM295 1292q0 40 151 183q56 52 93 68t88 16t87.5 -16t92.5 -68q151 -143 151 -183 q0 -46 -29 -76t-63 -30q-30 0 -50.5 11t-57.5 48l-131 133l-131 -133q-34 -35 -55.5 -47t-53.5 -12t-62 30t-30 76zM373 543q0 -97 27.5 -175t85 -124.5t141.5 -46.5q127 0 190.5 98t63.5 248q0 100 -27.5 177t-85 121t-141.5 44q-125 0 -189.5 -93.5t-64.5 -248.5z" />
<glyph unicode="&#xf5;" horiz-adv-x="1253" d="M74 543q0 161 64 289.5t189 202t300 73.5t299.5 -73.5t189 -201.5t64.5 -290q0 -118 -30 -220.5t-95.5 -181t-173 -123.5t-254.5 -45q-145 0 -253 45t-174 124t-96 181t-30 220zM262 1343q0 70 61 122.5t132 52.5q49 0 147 -35q88 -37 125 -37q27 0 76 37q24 17 42.5 26 t43.5 9q102 0 102 -93q0 -47 -34 -91.5t-85 -72.5t-98 -28q-42 0 -78.5 12.5t-96 37t-77.5 24.5q-23 0 -41.5 -9t-42.5 -27.5t-41 -28t-37 -9.5q-24 0 -46.5 11.5t-37 36t-14.5 62.5zM373 543q0 -97 27.5 -175t85 -124.5t141.5 -46.5q127 0 190.5 98t63.5 248 q0 100 -27.5 177t-85 121t-141.5 44q-125 0 -189.5 -93.5t-64.5 -248.5z" />
<glyph unicode="&#xf6;" horiz-adv-x="1253" d="M74 543q0 161 64 289.5t189 202t300 73.5t299.5 -73.5t189 -201.5t64.5 -290q0 -118 -30 -220.5t-95.5 -181t-173 -123.5t-254.5 -45q-145 0 -253 45t-174 124t-96 181t-30 220zM268 1370q0 62 45 106t105 44q42 0 76 -20.5t53.5 -54.5t19.5 -75q0 -42 -20 -76.5 t-54 -54.5t-75 -20q-60 0 -105 44t-45 107zM373 543q0 -97 27.5 -175t85 -124.5t141.5 -46.5q127 0 190.5 98t63.5 248q0 100 -27.5 177t-85 121t-141.5 44q-125 0 -189.5 -93.5t-64.5 -248.5zM686 1370q0 62 45 106t105 44q42 0 76 -20.5t53.5 -54.5t19.5 -75 q0 -42 -20 -76.5t-54 -54.5t-75 -20q-60 0 -105 44t-45 107z" />
<glyph unicode="&#xf7;" horiz-adv-x="1229" d="M35 586q0 55 39 89t104 34h873q65 0 104 -34t39 -89q0 -57 -39 -91t-104 -34h-873q-62 0 -102.5 38t-40.5 87zM434 158q0 48 24 90.5t65.5 67t90.5 24.5q50 0 91.5 -24.5t65.5 -67t24 -90.5q0 -50 -23.5 -92t-66 -66.5t-91.5 -24.5q-48 0 -90 24.5t-66 66.5t-24 92z M434 1014q0 48 24 90.5t65.5 67t90.5 24.5q50 0 91.5 -24.5t65.5 -67t24 -90.5q0 -50 -23.5 -92t-66 -66.5t-91.5 -24.5q-48 0 -90 24.5t-66 66.5t-24 92z" />
<glyph unicode="&#xf8;" horiz-adv-x="1253" d="M45 10q0 35 43 78l84 90q-98 137 -98 365q0 161 64 289.5t189 202t300 73.5q200 0 338 -98l86 88q49 49 86 49q29 0 50 -22t21 -54q0 -35 -43 -78l-90 -96q105 -144 105 -354q0 -118 -30 -220.5t-95.5 -181t-173 -123.5t-254.5 -45q-211 0 -344 95l-80 -84 q-47 -47 -86 -47q-28 0 -50 21t-22 52zM373 543q0 -80 16 -137l399 417q-64 62 -161 62q-125 0 -189.5 -93.5t-64.5 -248.5zM467 260q63 -63 160 -63q127 0 190.5 98t63.5 248q0 79 -15 135z" />
<glyph unicode="&#xf9;" d="M119 371v587q0 69 34 109.5t115 40.5q82 0 116 -40.5t34 -109.5v-528q0 -96 48 -152.5t140 -56.5q86 0 157 66t71 172v499q0 150 149 150q82 0 116 -40.5t34 -109.5v-833q0 -152 -136 -152q-135 0 -135 152v39h-4q-69 -92 -155.5 -141.5t-206.5 -49.5q-71 0 -138 20.5 t-120.5 66t-86 123.5t-32.5 188zM342 1460q0 40 27.5 77.5t83.5 37.5q33 0 65 -19t72 -53l151 -117q60 -48 60 -100q0 -48 -32.5 -74t-72.5 -26t-94 37l-184 127q-76 50 -76 110z" />
<glyph unicode="&#xfa;" d="M119 371v587q0 69 34 109.5t115 40.5q82 0 116 -40.5t34 -109.5v-528q0 -96 48 -152.5t140 -56.5q86 0 157 66t71 172v499q0 150 149 150q82 0 116 -40.5t34 -109.5v-833q0 -152 -136 -152q-135 0 -135 152v39h-4q-69 -92 -155.5 -141.5t-206.5 -49.5q-71 0 -138 20.5 t-120.5 66t-86 123.5t-32.5 188zM453 1286q0 28 13 50.5t46 49.5l152 117q44 35 74.5 53.5t62.5 18.5q56 0 83 -38t27 -77q0 -61 -75 -110l-185 -127q-54 -37 -94 -37q-38 0 -71 26.5t-33 73.5z" />
<glyph unicode="&#xfb;" d="M119 371v587q0 69 34 109.5t115 40.5q82 0 116 -40.5t34 -109.5v-528q0 -96 48 -152.5t140 -56.5q86 0 157 66t71 172v499q0 150 149 150q82 0 116 -40.5t34 -109.5v-833q0 -152 -136 -152q-135 0 -135 152v39h-4q-69 -92 -155.5 -141.5t-206.5 -49.5q-71 0 -138 20.5 t-120.5 66t-86 123.5t-32.5 188zM295 1292q0 40 151 183q56 52 93 68t88 16t87.5 -16t92.5 -68q151 -143 151 -183q0 -46 -29 -76t-63 -30q-30 0 -50.5 11t-57.5 48l-131 133l-131 -133q-34 -35 -55.5 -47t-53.5 -12t-62 30t-30 76z" />
<glyph unicode="&#xfc;" d="M119 371v587q0 69 34 109.5t115 40.5q82 0 116 -40.5t34 -109.5v-528q0 -96 48 -152.5t140 -56.5q86 0 157 66t71 172v499q0 150 149 150q82 0 116 -40.5t34 -109.5v-833q0 -152 -136 -152q-135 0 -135 152v39h-4q-69 -92 -155.5 -141.5t-206.5 -49.5q-71 0 -138 20.5 t-120.5 66t-86 123.5t-32.5 188zM268 1370q0 62 45 106t105 44q42 0 76 -20.5t53.5 -54.5t19.5 -75q0 -42 -20 -76.5t-54 -54.5t-75 -20q-60 0 -105 44t-45 107zM686 1370q0 62 45 106t105 44q42 0 76 -20.5t53.5 -54.5t19.5 -75q0 -42 -20 -76.5t-54 -54.5t-75 -20 q-60 0 -105 44t-45 107z" />
<glyph unicode="&#xfd;" horiz-adv-x="1024" d="M25 965q0 62 42.5 102.5t102.5 40.5t100.5 -31t53.5 -82l192 -706h4l182 686q37 133 144 133q80 0 116.5 -46.5t36.5 -88.5q0 -36 -22 -96l-346 -992q-38 -108 -81 -176t-106.5 -102.5t-154.5 -34.5q-94 0 -141.5 40t-47.5 99q0 57 38 89t100 32h30q38 0 64 17t41 79 l-312 895q-23 68 -29.5 92.5t-6.5 49.5zM338 1286q0 28 13 50.5t46 49.5l152 117q44 35 74.5 53.5t62.5 18.5q39 0 64 -19.5t36 -45.5t11 -50q0 -60 -76 -110l-184 -127q-55 -37 -95 -37q-38 0 -71 26.5t-33 73.5z" />
<glyph unicode="&#xfe;" d="M119 -276v1642q0 46 18.5 80.5t52.5 52t78 17.5q43 0 78 -17.5t53.5 -51.5t18.5 -81v-393h4q33 56 107.5 95.5t179.5 39.5q97 0 181 -35.5t148.5 -107t102 -181t37.5 -249.5q0 -111 -28.5 -212.5t-85.5 -180t-145 -124t-202 -45.5q-209 0 -295 154h-4v-403 q0 -73 -40.5 -112.5t-109.5 -39.5q-68 0 -108.5 39.5t-40.5 112.5zM401 545q0 -136 57.5 -236t182.5 -100q129 0 183.5 101.5t54.5 234.5q0 141 -61.5 232.5t-176.5 94.5q-84 0 -137.5 -44.5t-78 -118.5t-24.5 -164z" />
<glyph unicode="&#xff;" horiz-adv-x="1024" d="M25 965q0 62 42.5 102.5t102.5 40.5t100.5 -31t53.5 -82l192 -706h4l182 686q37 133 144 133q80 0 116.5 -46.5t36.5 -88.5q0 -36 -22 -96l-346 -992q-38 -108 -81 -176t-106.5 -102.5t-154.5 -34.5q-94 0 -141.5 40t-47.5 99q0 57 38 89t100 32h30q38 0 64 17t41 79 l-312 895q-23 68 -29.5 92.5t-6.5 49.5zM154 1370q0 41 19.5 75t53.5 54.5t76 20.5t75.5 -20.5t54 -54t20.5 -75.5q0 -43 -21 -77.5t-54.5 -54t-74.5 -19.5t-75 20t-54 54.5t-20 76.5zM571 1370q0 62 45 106t105 44q42 0 76 -20.5t53.5 -54.5t19.5 -75q0 -42 -20 -76.5 t-54 -54.5t-75 -20q-60 0 -105 44t-45 107z" />
<glyph unicode="&#x152;" horiz-adv-x="2048" d="M90 709q0 210 60.5 393.5t200.5 298.5t362 115q133 0 220.5 -47t141.5 -123q12 81 51 112t109 31h602q82 0 126 -30t44 -105q0 -77 -44 -107t-126 -30h-457v-324h449q76 0 117 -28t41 -101q0 -74 -41.5 -102.5t-116.5 -28.5h-449v-361h473q81 0 125.5 -30.5t44.5 -104.5 q0 -75 -44 -106t-126 -31h-608q-93 0 -124.5 33t-45.5 110q-120 -170 -397 -170q-191 0 -325 102t-198.5 270t-64.5 364zM426 705q0 -154 43 -261t117 -159t168 -52q82 0 151.5 43.5t110.5 124.5t41 189v307q0 93 -35.5 175t-103 132.5t-158.5 50.5q-105 0 -180.5 -63.5 t-114.5 -188t-39 -298.5z" />
<glyph unicode="&#x153;" horiz-adv-x="1972" d="M74 543q0 161 64 289.5t189 202t300 73.5q114 0 206.5 -43.5t161.5 -126.5q49 53 105 91t124.5 58.5t157.5 20.5q116 0 213.5 -41.5t164 -111t102.5 -158t36 -183.5q0 -54 -12 -81.5t-39.5 -38.5t-79.5 -11h-639q0 -61 19 -111.5t53.5 -87t78.5 -56t89 -19.5 q98 0 138.5 24t100 74.5t107.5 50.5q52 0 87.5 -37.5t35.5 -80.5q0 -86 -75 -146t-185 -90.5t-209 -30.5q-128 0 -225 44t-152 133q-68 -86 -161 -131.5t-240 -45.5q-132 0 -231.5 44.5t-162.5 124t-92.5 182t-29.5 219.5zM373 543q0 -97 27.5 -175t85 -124.5t141.5 -46.5 q123 0 183 98t60 248q0 101 -26.5 178t-81 120.5t-135.5 43.5q-125 0 -189.5 -93.5t-64.5 -248.5zM1128 657h488q-12 103 -79.5 171.5t-154.5 68.5q-111 0 -168.5 -60t-85.5 -180z" />
<glyph unicode="&#x178;" horiz-adv-x="1253" d="M18 1362q0 78 54.5 116t115.5 38q58 0 91.5 -23t60.5 -76l293 -545l291 545q31 57 62 78t83 21q58 0 112 -38t54 -116q0 -46 -29 -90l-411 -690v-439q0 -77 -45.5 -123.5t-122.5 -46.5q-76 0 -122 47t-46 123v439l-412 690q-29 47 -29 90zM268 1747q0 61 45 105t105 44 q41 0 75 -20t54 -54t20 -75q0 -42 -20 -76.5t-53.5 -55t-75.5 -20.5t-75.5 20.5t-54 54.5t-20.5 77zM686 1747q0 61 45 105t105 44q41 0 75 -20t54 -54t20 -75q0 -42 -20 -76.5t-53.5 -55t-75.5 -20.5t-75.5 20.5t-54 54.5t-20.5 77z" />
<glyph unicode="&#x2c6;" horiz-adv-x="569" d="M-47 1292q0 40 151 183q56 52 93 68t88 16t87.5 -16t92.5 -68q151 -143 151 -183q0 -46 -29 -76t-63 -30q-30 0 -50.5 11t-57.5 48l-131 133l-131 -133q-34 -35 -55.5 -47t-53.5 -12t-62 30t-30 76z" />
<glyph unicode="&#x2dc;" horiz-adv-x="569" d="M-80 1341q0 72 61 124.5t132 52.5q49 0 147 -35q88 -37 125 -37q27 0 76 37q24 17 42.5 26t43.5 9q102 0 102 -93q0 -47 -34 -91.5t-85 -72.5t-98 -28q-42 0 -78.5 12.5t-96 37t-77.5 24.5q-23 0 -41.5 -9t-42.5 -27.5t-41 -28t-37 -9.5q-38 0 -68 27.5t-30 80.5z" />
<glyph unicode="&#x2000;" horiz-adv-x="996" />
<glyph unicode="&#x2001;" horiz-adv-x="1993" />
<glyph unicode="&#x2002;" horiz-adv-x="996" />
<glyph unicode="&#x2003;" horiz-adv-x="1993" />
<glyph unicode="&#x2004;" horiz-adv-x="664" />
<glyph unicode="&#x2005;" horiz-adv-x="498" />
<glyph unicode="&#x2006;" horiz-adv-x="332" />
<glyph unicode="&#x2007;" horiz-adv-x="332" />
<glyph unicode="&#x2008;" horiz-adv-x="249" />
<glyph unicode="&#x2009;" horiz-adv-x="398" />
<glyph unicode="&#x200a;" horiz-adv-x="110" />
<glyph unicode="&#x2010;" horiz-adv-x="834" d="M82 571q0 74 45.5 108t120.5 34h338q76 0 121 -33.5t45 -108.5q0 -76 -45 -109.5t-121 -33.5h-338q-166 0 -166 143z" />
<glyph unicode="&#x2011;" horiz-adv-x="834" d="M82 571q0 74 45.5 108t120.5 34h338q76 0 121 -33.5t45 -108.5q0 -76 -45 -109.5t-121 -33.5h-338q-166 0 -166 143z" />
<glyph unicode="&#x2012;" horiz-adv-x="834" d="M82 571q0 74 45.5 108t120.5 34h338q76 0 121 -33.5t45 -108.5q0 -76 -45 -109.5t-121 -33.5h-338q-166 0 -166 143z" />
<glyph unicode="&#x2013;" horiz-adv-x="1024" d="M20 571q0 57 34 84t87 27h742q53 0 87 -27t34 -84q0 -58 -34 -85t-87 -27h-742q-53 0 -87 27t-34 85z" />
<glyph unicode="&#x2014;" horiz-adv-x="2048" d="M20 571q0 57 34 84t87 27h1766q53 0 87 -27t34 -84q0 -58 -34 -85t-87 -27h-1766q-53 0 -87 27t-34 85z" />
<glyph unicode="&#x2018;" horiz-adv-x="647" d="M143 1151q0 98 27 161.5t78 114.5q32 30 88 59.5t98 29.5q33 0 51.5 -17.5t18.5 -44.5q0 -35 -67 -65t-106.5 -63.5t-43.5 -125.5q34 19 69 19q69 0 108.5 -47t39.5 -113q0 -68 -50 -119t-118 -51q-96 0 -144.5 74t-48.5 188z" />
<glyph unicode="&#x2019;" horiz-adv-x="647" d="M143 952q0 30 37 48.5t76 37.5t70 58t34 110q-32 -18 -69 -18q-68 0 -108 47t-40 113q0 69 49.5 118.5t118.5 49.5q64 0 107.5 -35t64.5 -94.5t21 -131.5q0 -100 -26 -160.5t-79 -115.5q-31 -29 -86.5 -59.5t-99.5 -30.5q-33 0 -51.5 17.5t-18.5 45.5z" />
<glyph unicode="&#x201a;" horiz-adv-x="647" d="M143 156q0 70 49 120t119 50q96 0 144.5 -74t48.5 -189q0 -99 -26 -160t-79 -116q-28 -26 -85.5 -57t-100.5 -31q-32 0 -51 18t-19 43q0 30 37 48.5t76 37.5t70 58t34 110q-32 -18 -69 -18q-68 0 -108 47t-40 113z" />
<glyph unicode="&#x201c;" horiz-adv-x="1100" d="M137 1151q0 98 27 161.5t78 114.5q27 27 85.5 58t100.5 31q33 0 51.5 -17.5t18.5 -44.5q0 -35 -67 -65t-106.5 -63.5t-43.5 -125.5q34 19 69 19q68 0 108 -46.5t40 -113.5q0 -68 -50 -119t-118 -51q-96 0 -144.5 74t-48.5 188zM602 1151q0 98 27 161.5t78 114.5 q27 27 85 58t101 31q33 0 51.5 -17.5t18.5 -44.5q0 -35 -67 -65t-106.5 -63.5t-44.5 -125.5q36 19 70 19q68 0 108 -46.5t40 -113.5q0 -68 -50 -119t-118 -51q-96 0 -144.5 74t-48.5 188z" />
<glyph unicode="&#x201d;" horiz-adv-x="1100" d="M137 952q0 30 37 48.5t76 37.5t70 58t34 110q-32 -18 -69 -18q-68 0 -108 46.5t-40 113.5q0 69 49.5 118.5t118.5 49.5q64 0 107.5 -35t64.5 -94.5t21 -131.5q0 -100 -26 -160.5t-79 -115.5q-31 -29 -87.5 -59.5t-98.5 -30.5q-33 0 -51.5 17.5t-18.5 45.5zM602 952 q0 30 37 48.5t76 37.5t70 58t34 110q-32 -18 -69 -18q-68 0 -108 46.5t-40 113.5q0 69 49.5 118.5t118.5 49.5q64 0 107.5 -35t64.5 -94.5t21 -131.5q0 -100 -26 -160.5t-79 -115.5q-31 -29 -87.5 -59.5t-98.5 -30.5q-33 0 -51.5 17.5t-18.5 45.5z" />
<glyph unicode="&#x201e;" horiz-adv-x="1100" d="M137 156q0 70 49 120t119 50q96 0 144.5 -74t48.5 -189q0 -99 -26 -160t-79 -116q-28 -26 -86.5 -57t-99.5 -31q-32 0 -51 18t-19 43q0 30 37 48.5t76 37.5t70 58t34 110q-32 -18 -69 -18q-68 0 -108 46.5t-40 113.5zM602 156q0 70 49 120t119 50q96 0 144.5 -74 t48.5 -189q0 -99 -26 -160t-79 -116q-28 -26 -86.5 -57t-99.5 -31q-32 0 -51 18t-19 43q0 30 37 48.5t76 37.5t70 58t34 110q-32 -18 -69 -18q-68 0 -108 46.5t-40 113.5z" />
<glyph unicode="&#x2022;" horiz-adv-x="1024" d="M143 745q0 101 49.5 186t134 135t185.5 50q77 0 144.5 -29t118 -79.5t78.5 -118t28 -144.5q0 -100 -49.5 -185.5t-135 -136t-184.5 -50.5t-184.5 50.5t-135 136t-49.5 185.5z" />
<glyph unicode="&#x2026;" horiz-adv-x="2048" d="M174 156q0 70 49 120t119 50q43 0 82.5 -23t62.5 -61.5t23 -85.5q0 -70 -50 -120t-118 -50q-69 0 -118.5 49.5t-49.5 120.5zM856 156q0 70 49 120t119 50q43 0 82.5 -23t62.5 -61.5t23 -85.5q0 -70 -50 -120t-118 -50q-69 0 -118.5 49.5t-49.5 120.5zM1538 156 q0 70 49 120t119 50q43 0 82.5 -23t62.5 -61.5t23 -85.5q0 -70 -50 -120t-118 -50q-69 0 -118.5 49.5t-49.5 120.5z" />
<glyph unicode="&#x202f;" horiz-adv-x="398" />
<glyph unicode="&#x2039;" horiz-adv-x="758" d="M156 571q0 45 17 85.5t52 64.5l201 147q44 33 80 33q40 0 68 -32t28 -74q0 -64 -65 -109l-168 -115l168 -116q65 -45 65 -107q0 -43 -27.5 -75.5t-68.5 -32.5q-34 0 -80 32l-201 148q-36 26 -52.5 65.5t-16.5 85.5z" />
<glyph unicode="&#x203a;" horiz-adv-x="758" d="M156 348q0 63 65 107l168 116l-168 115q-65 44 -65 109q0 42 28.5 74t67.5 32q34 0 80 -33l200 -147q36 -24 53 -63t17 -87q0 -49 -17 -87t-53 -64l-200 -148q-22 -16 -40 -24t-40 -8q-39 0 -67.5 32.5t-28.5 75.5z" />
<glyph unicode="&#x205f;" horiz-adv-x="498" />
<glyph unicode="&#x2122;" horiz-adv-x="2048" d="M35 1397q0 36 25 64t75 28h506q51 0 74.5 -27.5t23.5 -64.5t-23 -65.5t-75 -28.5h-131v-549q0 -73 -41 -104.5t-82 -31.5t-82 32.5t-41 103.5v549h-129q-51 0 -75.5 29t-24.5 65zM846 754v561q0 100 52 143t118 43q80 0 134 -39t85 -121l133 -344l133 344q33 84 86 122 t133 38q67 0 118.5 -43t51.5 -143v-561q0 -73 -41 -104.5t-82 -31.5q-40 0 -81 32.5t-41 103.5v385h-5l-149 -410q-40 -111 -123 -111q-82 0 -123 111l-149 410h-4v-385q0 -73 -41 -104.5t-82 -31.5t-82 32.5t-41 103.5z" />
<glyph unicode="&#xe000;" horiz-adv-x="1110" d="M0 0v1110h1110v-1110h-1110z" />
</font>
</defs>
</svg>
